<svg xmlns="http://www.w3.org/2000/svg" viewBox="0 0 985.84 529.72"><defs><style>.cls-1{fill:#ebece6;}.cls-2{fill:#f7f7f6;}.cls-3{fill:#97192a;}.cls-4{fill:#030304;}.cls-5{fill:#0f9899;}.cls-6{fill:#427478;}</style></defs><g id="Livello_2" data-name="Livello 2"><g id="Livello_1-2" data-name="Livello 1"><path class="cls-1" d="M962.2,447.28c-1-2.65-2.06-5.29-3.1-7.94,3.29-1.33,1.81-3.42,1-5.55-.54-1.45-3.05-3.18.18-4.55a14.88,14.88,0,0,1,3.49,5.09C961.85,438.48,965.07,443.25,962.2,447.28Z"/><path class="cls-2" d="M876.26,429.9c-6.47,2-13.56-1.86-15.13-8.25-1.73-7.07,1-13.65,7.87-18.36,7.61-5.24,16.25-7.5,25.31-7.86,5.24-.2,10.59-1,15.8.66,2,.64,2.36-1.32,3.22-2.4,10-12.55,21.63-23.17,36.54-29.71a76.09,76.09,0,0,1,35.33-6.53c-7.74,7.61-6.23,16.48-6.25,25-.07,30,.08,59.92-.11,89.88,0,4.7.56,8.45,5.12,10.72.8.4,1.32,1.38,1.88,2-.51,1.58-1.69,1.38-2.58,1.25-7.17-1.06-14.32-1.47-21.5,0-.82.16-2.06.52-2.59-.72-.31-.74.19-1.29.75-1.64,10-6.2,6-15.83,5.71-24.35-.11-4.19-1.68-8.35-3.43-12.27,2.87-4-.35-8.8,1.57-12.95.43.5.84,1.4,1.3,1.43,1.71.11.85-1.35.85-2,.08-11.64.07-23.28.07-34.92v-33.7c-20.1,5.11-35.46,16-47,32.7,20.31,9.46,28.13,14.77,36.08,24.43-.47,1.45-2.87,2.55-1.5,4.19,1.14,1.35,3-.6,4.57-.19a4.55,4.55,0,0,1,2.12,3c-3.23,1.37-.72,3.1-.18,4.55.81,2.13,2.29,4.22-1,5.55a74.47,74.47,0,0,0-39.38-34.84c-3-1.16-5-1.51-6.31,2.27-1.41,4-3.52,7.73-5.32,11.57-3.57-1.28-4.61-6.3-1.23-7.94s1.85-4.78,3.44-6.83a2.11,2.11,0,0,0-3.18-2.36c-10.33-2.06-20.19-1-29.31,4.56-2.93,1.77-5,4.29-5.39,7.93-.3,3,.73,5.6,3.53,6.43s5.71.36,6.74-3.25c.17-.62.37-1.28,1.19-1.36a11.34,11.34,0,0,1,.69,2.51,10.1,10.1,0,0,1-2.7,8.46,11.88,11.88,0,0,1-1.33,1.21A13.33,13.33,0,0,1,876.26,429.9Z"/><path class="cls-1" d="M955.09,422.27a7.82,7.82,0,0,1,3.07,4c-1.58-.41-3.43,1.54-4.57.19C952.22,424.82,954.62,423.72,955.09,422.27Z"/><path class="cls-1" d="M914.12,499.24h0Z"/><path class="cls-1" d="M914.12,499.25c-2.13.22-3.23-.65-3.07-2.88l3.07,2.87Z"/><path class="cls-1" d="M912.09,502.27a3,3,0,0,0,2-3h0l4.08,3c-2,.68-4.07,2.44-6.14.07Z"/><path class="cls-1" d="M912.09,502.27l0,0-.36-.23Z"/><path class="cls-1" d="M906,488.4a7.29,7.29,0,0,1,2,3.93C905.54,491.92,906.19,490,906,488.4Z"/><path class="cls-2" d="M904.58,422.57c-.15-.27-.39-.52-.38-.76s.25-.48.39-.72c.14.24.38.48.38.72S904.73,422.3,904.58,422.57Z"/><path class="cls-1" d="M904.59,489.22c-1,.2-1.17-1.1-1.21-1.72-.18-2.77-.15-5.54-.19-8.31.89,2.72,1.79,5.42,2.68,8.14C905.45,488,905.12,489.12,904.59,489.22Z"/><path class="cls-1" d="M904.59,421.09c-.14.24-.39.48-.39.72s.23.49.38.76c.15-.27.4-.52.39-.76S904.73,421.33,904.59,421.09Zm-6.46,4.46A102,102,0,0,1,902,414.14c1.73-4.3,4.49-8.2,5.16-12.93a2.11,2.11,0,0,1,3.18,2.36c-1.59,2.05-.11,5.21-3.44,6.83s-2.34,6.66,1.23,7.94A94.33,94.33,0,0,0,904,432.46l-1.74-.37c.34-1.68.54-3.4.75-5.12.14-1.19.53-3-1.22-3.31s-2.1,1-2.42,2.23Z"/><path class="cls-2" d="M900.5,491.37c-.52-5.66-2.73-11.16-1.43-17,.19-.87-.33-2.05,1.32-2.52,1.5,2.2-.12,5.72,2.8,7.31h0c0,2.77,0,5.54.19,8.31,0,.62.2,1.92,1.21,1.72.53-.1.86-1.22,1.28-1.89.06.36.11.72.17,1.07.15,1.56-.5,3.52,2,3.93l0,.1.58.82,2.44,3.12c-.16,2.23.94,3.1,3.07,2.88a3,3,0,0,1-2,3l-.38-.2.36.23c2.07,2.37,4.1.61,6.14-.07,1.59,0,2.68.94,4,2.51-7.66,2.92-15.22,5.57-21.64,11.07a19,19,0,0,1-.44-7.54c.11-.1.34-.23.32-.28a3.78,3.78,0,0,0-.36-.69c0-.32,0-.64-.08-1C904.81,501.51,901,496.34,900.5,491.37Z"/><path class="cls-1" d="M900,506.33c-2.56-13.12-4.81-26.23-5.6-39.32l2.68-.18A3.71,3.71,0,0,0,898,469c1.61-1.45,1.24-2.73.23-4.79l0-2.63h.78c0-1.83.12-3.65.12-5.48l2.71,0a204.42,204.42,0,0,0,1.43,23.09h0c-2.92-1.59-1.3-5.11-2.8-7.31-1.65.47-1.13,1.65-1.32,2.52-1.3,5.82.91,11.32,1.43,17C901,496.34,904.81,501.51,900,506.33Z"/><path class="cls-1" d="M900.48,508c0,.05-.21.18-.32.28,0-.33,0-.65,0-1A3.78,3.78,0,0,1,900.48,508Z"/><path class="cls-2" d="M899.06,439.29c.05-4.22-.88-8.47.17-12.66l.18-.74c.32-1.22.8-2.49,2.42-2.23s1.36,2.12,1.22,3.31c-.21,1.72-.41,3.44-.75,5.12a16.45,16.45,0,0,1-3.19,7.24Z"/><path class="cls-2" d="M899.11,439.33v2.94c-1.2-1.07-3.21-2.23-.05-3Z"/><path class="cls-2" d="M897.57,461.57V448a18.47,18.47,0,0,1,1.49,8c0,1.83-.12,3.65-.12,5.48h-1.37Z"/><path class="cls-2" d="M897.12,466.83a4.62,4.62,0,0,1,1.06-2.63c1,2.06,1.38,3.34-.23,4.79A3.71,3.71,0,0,1,897.12,466.83Z"/><path class="cls-1" d="M894.44,467c-.86-13.85-.08-27.68,3.69-41.46l1.28.34-.18.74c-1.05,4.19-.12,8.44-.17,12.66-3.16.75-1.15,1.91.05,3v-2.94a16.45,16.45,0,0,0,3.19-7.24l1.74.37a118.16,118.16,0,0,0-2.27,23.64l-2.71,0a18.47,18.47,0,0,0-1.49-8v13.53h.59l0,2.63a4.62,4.62,0,0,0-1.06,2.63Z"/><path class="cls-2" d="M880.54,427.7a11.88,11.88,0,0,0,1.33-1.21A11,11,0,0,1,880.54,427.7Z"/><path class="cls-1" d="M864.08,362.13c1.59-3.42-1.06-6.35-1.25-9.6-.11-1.8-.11-3,1.24-4.15C868.33,354.16,868.33,357.92,864.08,362.13Z"/><path class="cls-2" d="M831.69,360.07c8.46-17.17,22.16-22.28,32.38-11.69-1.35,1.12-1.35,2.35-1.24,4.15.19,3.25,2.84,6.18,1.25,9.6-1.32.9-1.84,2.72-3.63,3.08-.16-.19-.53-.45-.49-.62,1-4.38,1.22-8.61-3.13-11.44-5-3.27-10-2.19-14.58.94-2,1.36-3.45,3.48-5.15,5.25-2-.24-3.22.22-3.75,1.48Z"/><path class="cls-1" d="M875.15,331.74c-.87-3-2.18-4.84-5.83-4.45-3.37.36-7.06-.71-8.08,4.24-.34,1.67-.52,4.15-3.47,3.84a12.9,12.9,0,0,0-1.65,0v-.05c3.31-7.92,6.17-14.77,9.06-21.61.55-1.32.73-3,2.57-3.3,2.19-.31,2.2,1.67,2.76,2.91,3.22,7.2,6.37,14.42,9.53,21.62C876.33,336.57,875.78,333.91,875.15,331.74Zm-9.73-8.15c.71,1.76,3.9.56,6.38.59-1.28-2.64-2.33-4.83-4-8.35C866.63,319.2,864.74,321.91,865.42,323.59Z"/><path class="cls-1" d="M837.39,310.54c1.42-1.19,10.23.1,11.82,1.84,2.74,3,3.09,6.35.27,9.33-1.54,1.62-1.33,2.33-.05,3.91,2.25,2.77,4.11,5.87,6.69,9.66v.05c-2.48,0-5,.31-6.45-2.95a17.49,17.49,0,0,0-5.21-7.15,3.72,3.72,0,0,0-3.22-.76c-1.73.37-.93,1.87-1,2.87-.12,2.16,0,4.33,0,6.49,0,1-.41,1.53-1.46,1.54s-1.9-.23-1.9-1.61c0-7.32,0-14.65,0-22A1.78,1.78,0,0,1,837.39,310.54Zm2.87,5.75c.38,1.83-1.78,5,2.43,5,2.64,0,4.59-.92,4.78-3.66s-1.39-4.2-4.55-4.31C841,313,839.76,314,840.26,316.29Z"/><path class="cls-1" d="M845.28,444.36c3.67-1,7.83,1.21,9.63,5.19,2.13,4.72,1.49,9.54-.21,14.1a32,32,0,0,1-17.35,18.75c-1.85-1.27-2.24-3.18-2.29-5.24,3.75-2.62,7.53-5.2,10.48-8.78a16.14,16.14,0,0,0,3.83-9c.27-2.93.19-5.9-2.55-7.57s-4.93.38-6.94,2.41C839.33,449.59,841.77,445.32,845.28,444.36Z"/><path class="cls-1" d="M833.13,371.67c-.06-2.81.14-5.63-.06-8.42a5.36,5.36,0,0,1,.28-2.43c.53-1.26,1.76-1.72,3.75-1.48a17.88,17.88,0,0,0-.06,12.3c0,1.62.46,3.65-2.14,3.48C832.72,375,833.16,373.07,833.13,371.67Z"/><path class="cls-1" d="M815.26,313.35c-1.08.22-2.4.32-2.32-1.58.07-1.48,1-1.45,2-1.45h16.4c1,0,2-.06,2.08,1.4.07,1.79-1.24,1.87-2.35,1.63-6.32-1.37-6.33,2.47-6.07,6.95.24,4.13.05,8.28.05,12.42,0,1.31.24,2.64-1.86,2.68s-2.08-1.07-2.06-2.52c0-3,0-6,0-8.95h0a26.28,26.28,0,0,1,0-4C821.88,315.3,821.06,312.2,815.26,313.35Z"/><path class="cls-2" d="M801.16,327.34c-.49,4.42,1.72,5.7,5.73,5a14.73,14.73,0,0,1,3,0c1,.07,2.45-.39,2.53,1.45s-1.31,1.54-2.38,1.54c-3.63,0-7.26-.09-10.89-.14C800,332.61,797.2,329.1,801.16,327.34Z"/><path class="cls-1" d="M799.12,335.19c-1.55-.15-1.1-1.37-1.1-2.23q-.06-9.9,0-19.81c0-1.2-.52-2.79,1.66-2.84s1.86,1.41,1.83,2.71c-.09,4.77-.21,9.54-.33,14.32C797.2,329.1,800,332.61,799.12,335.19Z"/><path class="cls-1" d="M775.9,333c-.86,2.42-2.27,3-4.53,2,3-7.32,6-14.66,9.08-21.94.46-1.08.68-2.68,2.51-2.69s2,1.55,2.46,2.68c3.2,7.23,6.36,14.47,9.64,22-2.19.73-3.9.74-4.4-1.89-1-5.05-4-5.93-8.83-5.9C777.25,327.21,776.89,330.16,775.9,333Zm4.19-8.89h6.67l-4.1-8.35C782.05,319.48,780.07,321.35,780.09,324.09Z"/><path class="cls-1" d="M771.92,449.37l3.12,5.95C769.43,455.73,772.18,451.76,771.92,449.37Z"/><path class="cls-2" d="M762.22,431.8c2.73,3.77,4.81,7.78,5,12.59.08,2.39,1.79,2.94,3.82,2.95a2.14,2.14,0,0,1,.91,2c.26,2.39-2.49,6.36,3.12,5.95,2,2.82,3.89,5.72,6,8.46,11.19,14.58,30.65,23.23,54,13.38.05,2.06.44,4,2.29,5.24-10.24,6.76-21.69,8-33.42,6.49-32-4-49.91-36.75-52.06-61.34-1.68-19.2,1.79-36.59,13.46-52.32,14.38-19.4,42.4-28.94,65.29-12.86.35-.79.7-1.55,1.07-2.3l1.66.75a5.36,5.36,0,0,0-.28,2.43c.2,2.79,0,5.61.06,8.42,0,1.4-.41,3.31,1.77,3.45,2.6.17,2.17-1.86,2.14-3.48a19.46,19.46,0,0,0,8.49,7.08l-12.8,7.79c-1.59-2.81.46-5.26,0-7.84-1.63-8.53-9.23-15.47-18.71-17.38-16.05-3.23-28.65,1.88-38.22,15a4.13,4.13,0,0,0-1.33-.66c-2.09-.16-4.41-1.11-6.12.77s-.46,3.62,1,5.17c.91,1,.25,1.9-.51,2.57-4.53,3.95-7.11,8.37-5.9,14.88a18.81,18.81,0,0,1-.66,8.12c-2.24,7.61,0,15.34-.91,23C761.25,430.61,761.84,431.27,762.22,431.8Z"/><path class="cls-1" d="M762.22,407.11a18.81,18.81,0,0,0,.66-8.12c-1.21-6.51,1.37-10.93,5.9-14.88.76-.67,1.42-1.58.51-2.57-1.44-1.55-2.78-3.19-1-5.17s4-.93,6.12-.77a4.13,4.13,0,0,1,1.33.66c-14.32,22.29-13.48,45.71-5.16,69.68.15.46.27.93.41,1.4-2,0-3.74-.56-3.82-2.95-.16-4.81-2.24-8.82-5-12.59-.38-.53-1-1.19-.91-1.73C762.22,422.45,760,414.72,762.22,407.11Z"/><path class="cls-1" d="M757.77,319c-3.16.3-.91-3.38-2-4.87.64-1.43-1.06-3.73,1.93-3.82,2.16-.07,2,1.57,1.74,2.7C759,315.11,760.24,318.76,757.77,319Z"/><path class="cls-1" d="M731.81,335.36c-2.09.16-1.93-1.25-1.93-2.6,0-6.49,0-13,0-19.46,0-1-.71-2.47,1-2.93,1.51-.42,2.48.5,3.37,1.56q6.09,7.23,12.21,14.45c.61.72,1.26,1.39,2.73,3,0-6.2,0-11.11,0-16,0-1.31-.72-3.24,1.91-3.06,2.12.15,1.63,1.75,1.64,2.95.07,5.82.14,11.65,0,17.47,0,1.49,1.08,3.59-.93,4.45-2.4,1-3.5-1.2-4.75-2.66-3.92-4.52-7.78-9.1-11.68-13.64-.48-.57-.72-1.49-2.25-1.37,0,5.05,0,10.13,0,15.21C733.13,333.75,733.74,335.21,731.81,335.36Z"/><path class="cls-1" d="M705.25,310.35c2.84.09,1.63,2.42,1.69,3.79.17,3.66,0,7.33.08,11,.13,5.06,2.28,7.33,6.8,7.16s6.52-2.55,6.43-7c-.08-4,0-8,0-12,0-1.57,0-3,2.25-3s1.51,1.74,1.56,2.86c.1,2.33,0,4.67,0,7.52-.67,3.22,1.11,7.11-2.24,10.76-3.51,3.82-7.27,4.63-11.72,3.48-4.75-1.23-7-4.65-7-9.59,0-3.66-.11-7.34.06-11C703.29,312.85,702,310.25,705.25,310.35Z"/><path class="cls-1" d="M707.53,360.36c-.82-.49-1.87-1.14-1.46-2.32s1.7-.71,2.59-.71c4.27,0,8.41,1.17,12.74,1.1,3-.06,5.79-1.23,8.75-1.13.93,0,2.24-.3,2.44,1a2.53,2.53,0,0,1-1.23,1.93c-5.37,2.69-5.66,7.36-5.59,12.62.21,16.48.08,33,.08,49.46h-.1c0,16.49.12,33-.08,49.46,0,4.81.61,8.85,5.2,11.36.85.47,1.78,1.19,1.48,2.35-.36,1.39-1.72.95-2.51.78-7.2-1.5-14.37-.95-21.55,0-.88.11-2.17.46-2.45-.92a1.88,1.88,0,0,1,.91-1.53c6.55-3.28,5.77-9.16,5.75-15q-.15-48.21.07-96.43C712.6,367.4,712.22,363.13,707.53,360.36Z"/><path class="cls-1" d="M696.7,278.31c1.73,0,1.73,1,1.71,2.27,0,3.47,0,6.94,0,10.42h.1c0,3.3,0,6.61,0,9.91,0,1.12.24,2.34-1.54,2.47-1.94.15-2.12-1-2.12-2.44q.06-10.17.08-20.32C694.91,279.37,695,278.33,696.7,278.31Z"/><path class="cls-1" d="M681.43,441.3c6.5-4.08-3.35-9.07.74-13.27a6.65,6.65,0,0,0,.9-1.69c3.67,10,4.56,20,1.19,30.22-1.49-2.43-1-5.13-1.12-7.76-.08-2.12.46-4.35-1.13-6.21A3.24,3.24,0,0,1,681.43,441.3Z"/><path class="cls-1" d="M668.42,290.61a9.53,9.53,0,0,0,9.69,9.71,9.46,9.46,0,1,0-9.69-9.71ZM678,303.39c-7.51,0-13.12-5.26-13.16-12.35,0-7.4,5.58-12.76,13.35-12.72,7.54,0,13.13,5.27,13.26,12.39S685.87,303.39,678,303.39Z"/><path class="cls-1" d="M668.2,335.23c-1.62-.5-.25-1.68,0-2.28,2.81-6.87,5.76-13.68,8.64-20.52.45-1.08.75-2.2,2.3-2.11s1.72,1.27,2.18,2.33c3.23,7.39,6.48,14.77,9.79,22.3-3.9,1.44-4.52-1.23-5-3.37-1-4.39-4-4.08-7.44-4.31-3.66-.25-5.54,1.05-6.39,4.42a18,18,0,0,1-1.08,2.77C670.55,335.94,669.14,335.52,668.2,335.23Zm7.5-11.08h7.11c-1.22-2.53-2.33-4.83-3.88-8.06Z"/><path class="cls-1" d="M655.19,324.09v4.5c0-1.51,0-3,0-4.5,0-.24,0-.47,0-.71C655.18,323.61,655.19,323.85,655.19,324.09Z"/><path class="cls-1" d="M655.12,322c0,.48,0,.95,0,1.43C655.16,322.9,655.13,322.43,655.12,322Z"/><path class="cls-1" d="M647,311.78c.07-1.84,1.51-1.44,2.57-1.45q7.76,0,15.49,0c1.07,0,2.5-.41,2.5,1.5s-1.41,1.72-2.46,1.51c-5.78-1.15-6.44,1.91-6,6.62.38,4.29,0,8.65.09,13,0,1.57-.25,2.53-2.14,2.44-1.68-.07-1.81-1-1.8-2.3,0-1.5,0-3,0-4.5v-4.5c0-.24,0-.48,0-.71,0-.48,0-.95,0-1.43a14.13,14.13,0,0,1,.09-2.35c.64-4.57-.37-7.4-5.85-6.25C648.26,313.58,646.88,313.59,647,311.78Z"/><path class="cls-1" d="M639.74,303.38c-2.21.15-1.82-1.41-1.83-2.67,0-6.15-.09-12.3,0-18.45,0-1.27-1.1-3.14,1-3.85s3,1.18,4,2.34c4.53,5.24,8.93,10.59,14.3,17,0-6.32,0-11.36,0-16.39,0-1.42-.44-3.21,2-3,2.12.17,1.57,1.74,1.57,3,0,6.15.09,12.29,0,18.44,0,1.18.75,2.86-1,3.49-1.89.68-3-.6-4.1-1.95-4.48-5.34-9.07-10.58-14.57-17,0,6.34,0,11.42,0,16.5C641.17,301.89,641.59,303.26,639.74,303.38Z"/><path class="cls-1" d="M629,313.28c-1.24.12-3.86,1.41-3.88-1.32,0-3.09,2.71-1.48,4.16-1.56,4-.21,8,0,12-.09,1.89,0,3.64.05,4.1,2.36-.16.2-.24.4-.35.41-7.85,1.15-7.85,1.15-7.84,9.37a77.1,77.1,0,0,1-.1,8.47c-.17,1.55,1.67,4.49-2,4.4-3.16-.09-1.71-2.71-1.78-4.18a118.33,118.33,0,0,1,0-13.45C633.54,314.23,632.54,312.94,629,313.28Z"/><path class="cls-1" d="M601.21,312.73c0-1.2,0-2.33,1.7-2.42,1.91-.11,2.14,1,2.12,2.49,0,4.33-.08,8.66.05,13,.14,4.51,2.5,6.72,6.88,6.49,4.09-.21,6.36-2.22,6.27-6.59-.09-4.15.06-8.32.06-12.48,0-1.6,0-3,2.28-2.89s1.48,1.82,1.53,3c.1,2.16,0,4.33,0,6.49,0,1.66,0,3.33,0,5-.07,6.93-3.56,10.54-10.21,10.61-7,.07-10.61-3.53-10.69-10.66C601.18,320.72,601.21,316.73,601.21,312.73Z"/><path class="cls-2" d="M619.18,362.4c-.51-1.35-2-2.17-2-3.8,12-5.25,24.25-5.76,36.69-2.16,4,1.15,7.46,3.32,8.74,7.83a8.19,8.19,0,0,1-2.19,8.58c-2.5,2.67-5.51,2.84-8.67,2.31-.92-.16-2.55-.51-1.59-2.66,3.88-8.64.53-13.52-9.49-14.15A42.2,42.2,0,0,0,619.18,362.4Z"/><path class="cls-2" d="M593.92,441.14c-5.11,9-2.46,22,6.4,29.79,16.55,14.45,47.63,16.28,65.23-1,12.52-12.31,17.88-38.23-5.93-53.22-12.66-8-26.42-13.7-39.7-20.39-4.3-2.17-8.33-4.79-11.37-8.58-7.43-9.24-5.41-20.52,4.69-26.89,1.13,5.11-4.31,8.05-4.22,12.9,0,2.33-2.39,5.73.47,6.68,3.1,1,3.46-3.06,4.71-5.19a25.74,25.74,0,0,0,10.72,9.2c11.28,5.6,23.21,9.85,34.16,16.14,10.07,5.79,19.08,12.64,23.62,23.89a10,10,0,0,1,.37,1.9,6.65,6.65,0,0,1-.9,1.69c-4.09,4.2,5.76,9.19-.74,13.27a3.24,3.24,0,0,0,.58,1.29c1.59,1.86,1,4.09,1.13,6.21.11,2.63-.37,5.33,1.12,7.76-2.61,10.9-10,18.11-18.89,24-18.33,12-45.83,11.79-63.6-.48-10.94-7.55-16.64-21.09-14.07-33.4s12.63-21.62,25.77-24.41a44.77,44.77,0,0,1,27.74,2.93c9,3.88,13.91,12.16,12.45,21-1.35,8.16-9.43,15.45-18.38,16.11-6.8.5-13.42-.25-18.94-5-3.13-2.67-3.9-6.12-3.19-9.92s3.61-5.48,6.73-6.73c1.47-.6,4.07-1.51,2.9,2.16s-1.42,7.09,2.54,9.59c4.55,2.87,9,2.54,13.3-.15,7.9-4.92,7.82-15.79-.38-21.15C624.1,421.85,602.53,425.92,593.92,441.14Z"/><path class="cls-1" d="M609.49,380.4c-2.86-.95-.43-4.35-.47-6.68-.09-4.85,5.35-7.79,4.22-12.9l3.92-2.22c0,1.63,1.51,2.45,2,3.8-4.4,3.2-5.9,7.53-5,12.81C613,377.34,612.59,381.43,609.49,380.4Z"/><path class="cls-1" d="M601,278.37c1.52-.46,2.43.64,3.31,1.68,4.62,5.45,9.25,10.89,14.9,17.53,0-6.1-.06-10.91,0-15.72,0-1.44-.87-3.71,2-3.5,2.5.17,1.51,2.18,1.54,3.44.1,6,.12,12,0,18,0,1.15.88,2.84-.87,3.48s-3-.52-4.14-1.88c-4.15-5-8.4-9.88-12.6-14.82-.4-.47-.59-1.2-2-.84,0,4.92,0,10,0,15.08,0,1,.57,2.47-1.37,2.59-2.13.13-1.85-1.34-1.86-2.65,0-6.32-.05-12.65,0-19C599.94,280.55,599.15,278.94,601,278.37Z"/><path class="cls-1" d="M574.91,280.21A14.15,14.15,0,0,1,593,283.35c3.33,4.08,3.26,11.13-.18,15.1a7.18,7.18,0,0,1-1.63,1.07c-.06-1.11.1-2.28-.84-3.16,3.07-9-.93-15.57-9.06-15-6.58.49-9.61,5.71-8.08,13.93l-3.24.12c-.16-.47-.3-.93-.43-1.39s-.22-.9-.3-1.34h0c-.08-.44-.14-.88-.18-1.31h0c0-.42-.06-.85-.06-1.26a11.6,11.6,0,0,1,.25-2.46,9.14,9.14,0,0,1,.34-1.27A11.21,11.21,0,0,1,574.91,280.21Z"/><path class="cls-2" d="M591.22,299.52c-5.54,5.55-13.66,5.23-18.49.15a13.12,13.12,0,0,1-1.24-1.51,14.39,14.39,0,0,1-1.49-2.71l3.24-.12c5.49,6.58,10.56,6.88,17.14,1C591.32,297.24,591.16,298.41,591.22,299.52Z"/><path class="cls-1" d="M588.27,335.15c-4.17.15-1.79-3.82-1.95-5.78-.42-5.29-.2-10.63-.23-15.94,1.55-3.18,3.24-3.19,5.07-.23-2.32,5.2-.17,10.71-1.14,16C589.63,331.23,592.15,335,588.27,335.15Z"/><path class="cls-2" d="M579.81,310.34l17,0c.88,0,1.56.23,1.65,1.34.11,1.4-.67,1.7-1.81,1.66l-5.48-.16c-1.83-3-3.52-2.95-5.07.23l-6-.07c-1,0-2,0-2.12-1.41S578.72,310.34,579.81,310.34Z"/><path class="cls-1" d="M564.78,310.31c3.28.06.55,2.74,2.12,3.59-1.55,1.73.63,5.45-2.57,5.12-2.26-.23-1.15-3.61-1.32-5.58C562.9,312.19,562.21,310.25,564.78,310.31Z"/><path class="cls-2" d="M557.68,324.35c-2.8.07-5.61.17-8.41.26,0-1.14,0-2.29,0-3.43l8.43.18c.86,0,1.65.17,1.75,1.25C559.56,323.89,558.85,324.32,557.68,324.35Z"/><path class="cls-1" d="M557.72,303.39c-6.64,0-11.59-3.1-13.34-8.13a12.69,12.69,0,0,1,4.34-14.19c5.13-4.05,11.26-3.1,15.68-1.14.91.41,1.83,1,1.34,2.27-.62,1.58-1.69.43-2.44.2-2.87-.87-5.79-1.54-8.71-.79-5.05,1.3-8.2,6.74-6.86,11.45a9.78,9.78,0,0,0,12.32,7.08c.62-.16,1.19-.72,1.8-.74,1.47,0,3.32-2.35,3.93-1,1.07,2.41-1.6,3.15-3.37,3.89S559.13,304,557.72,303.39Z"/><path class="cls-1" d="M549.28,332.08c-.87,1.06-1.94,1.09-2-.34a177.58,177.58,0,0,1,.07-18.46c.22-2.74,1.45-1.18,1.91.32,0,2.53,0,5,0,7.58,0,1.14,0,2.29,0,3.43Q549.27,328.35,549.28,332.08Z"/><path class="cls-2" d="M546,319.81c.27-3.06-1.51-7.77.75-8.83,3.27-1.53,7.73-.55,11.68-.6.85,0,1.57.23,1.67,1.33.13,1.45-.77,1.6-1.84,1.63l-8.93.26c-.46-1.5-1.69-3.06-1.91-.32a177.58,177.58,0,0,0-.07,18.46c0,1.43,1.11,1.4,2,.34,3,.08,6,.16,8.93.26,1,0,1.94-.08,2,1.45s-.85,1.56-1.89,1.56c-.34,0-.67,0-1,0-11.27.58-11.28.58-11.36-10.59C545.91,323.12,545.8,321.45,546,319.81Z"/><path class="cls-2" d="M480,377.26c-3.33-.79-4.75-3.34-4.89-6.68-.38-9,11.78-17.43,21.5-14.88,3.46.91,7,1.54,10.37,2.71a16.19,16.19,0,0,0,14.55-1.78c2.08-1.28,3.79-1.67,5.43.64,1.9,2.69-.62,3.58-2,4.64-15.51,12.38-27.53,27.49-34.31,46.18-5.43,15-6.31,30.5-1.5,46,7.73,24.84,29.94,31.06,51.61,20.19a53.3,53.3,0,0,0,9.7-6.89,12.06,12.06,0,0,0,4.65-10.29c-.26-28.47-.21-56.95,0-85.42,0-4.68-.68-8.46-5-11-.88-.52-2.35-1.17-1.84-2.58s2.1-.9,3.06-.72a62.54,62.54,0,0,0,23.3-.34c0,1.17.12,1.69,0,1.77-6.66,3.79-6.75,9.89-6.69,16.65.26,30,.1,59.94.12,89.91a46,46,0,0,0,.4,8c1.36,7.72,4.73,9.43,11.62,6.17a10.1,10.1,0,0,1-9.52,9.77c-8,.6-13.58-5.65-15.59-17.64-3.84,2.19-6.13,5.94-9.63,8.36-27.73,19.25-64.46,9.63-71.11-31.16-.53-3.26-.88-6.56-1.31-9.84q.19-7.69.4-15.41a111.45,111.45,0,0,1,25.59-43.11c4.64-4.93,9.65-9.51,14.35-14.68-9.26,2.45-17.61-1.18-26.14-3.16-2.42-.56-4.27-.17-5.71,1.63-1,1.31-1.75,3-.51,4.59a3.24,3.24,0,0,0,3.95,1.28c1.06-.41,2.22-1.46,3.07-.17.67,1-.19,2.27-.72,3.27C485.65,376.12,483.36,378.06,480,377.26Z"/><path class="cls-3" d="M439.17,395.32c11.89,8.8,24.29,17,34.12,28.27q-.19,7.71-.4,15.41-8.7,8.61-17.41,17.22c-2.43,2.41-4.82,4.87-7.23,7.3C444.86,440.84,441.28,418.18,439.17,395.32Z"/><path class="cls-2" d="M415.2,377.33c-.31.5-.75,1.49-.91,1.45-1.8-.5-.74-2.18-1.22-3.26,2.07-2.27,4-4.65,6.24-6.77,2.77-2.65,2.36-4.79-.57-6.89-1.4-1-3.17-1.77-3.37-4.08,3.5-1.19,6.76.12,10.09.49,4.6.52,9.16-.29,13.72-.92.92-.13,2.15-.22,2.48,1A1.86,1.86,0,0,1,441,360c-8.59,3.59-5.36,10.57-4.67,16.65.7,6.24,1.88,12.43,2.85,18.63,2.11,22.86,5.69,45.52,9.08,68.2.53,4.27,1.07,8.54,1.59,12.81.38,3.11,3.24,4,5.15,5.74,1.11,1,3.13,1.76,2.73,3.2-.59,2.11-2.91,1.08-4.32.94a98.88,98.88,0,0,0-10.76-1c-2.52,0-4.86.7-7.28,1-1.07.14-2.61.65-3.25-.49-.8-1.43.47-2.42,1.5-3.29,3.25-2.76,5.73-5.7,2.41-10,.13-9.87-1.8-19.53-3-29.26-2.57-20.88-5.34-41.74-8-62.61a4.78,4.78,0,0,0-.62-1.32h0c-.33-1.67.35-3.51-.93-5.31l-3.89,3.6Z"/><path class="cls-3" d="M424,483.46c-1.67,1.28-2.4-.66-3.16-2-4.52-8-9.24-16-13.64-24.07-1.66-3.07-4.84-4.94-6-8.3a4,4,0,0,1,0-.85c4.1-4.92,5.18-10.69,4.74-16.89a21.1,21.1,0,0,0-2.85-11c-2.07-4.95-4.54-9.64-8.77-13.16a2,2,0,0,0-.14-.77l24.5-27.06c2.16.3,3.22,2.43,5.38,3.19.11-1.14.2-2.21.3-3.3a4.78,4.78,0,0,1,.62,1.32c2.71,20.87,5.48,41.73,8,62.61,1.2,9.73,3.13,19.39,3,29.26C433.88,478.11,428.32,480.15,424,483.46Z"/><path class="cls-1" d="M400.16,446.63c2.3-4.95.06-11.64,5.77-15.28.44,6.2-.64,12-4.74,16.89C400.82,447.69,400,446.94,400.16,446.63Z"/><path class="cls-2" d="M397.18,253.73q1.21,1.89,2.42,3.78h0Q398.39,255.62,397.18,253.73Z"/><path class="cls-1" d="M394.31,407.17c4.23,3.52,6.7,8.21,8.77,13.16-3.28-.36-5.44-1.7-5-5.5.09-.75.17-1.6-1-1.84C393.65,412.29,394.34,409.54,394.31,407.17Z"/><path class="cls-1" d="M391.26,414.22c-.11-.74.31-1.26,1.14-1.08a1.23,1.23,0,0,1,1.1,1.36c-.09,2.71-.89,5.08-3.17,6.76a7.09,7.09,0,0,1-3-3C389,417.3,391.72,417.34,391.26,414.22Z"/><path class="cls-3" d="M382.1,420.2c1.27-1.92,2.42-4.16,5.21-1.91a7.09,7.09,0,0,0,3,3c4.25,5.35,7.66,10.94,5.3,18.21-4.11-5.24-8.88-10.07-10.6-16.8C384.62,421.1,382.82,421.32,382.1,420.2Z"/><path class="cls-2" d="M387.14,238.92q5.17,7.29,10,14.81Q392.31,246.22,387.14,238.92Z"/><path class="cls-1" d="M393.09,401.64c-3,1.64-5.21.29-7.6-.25-3.88-.88-.73-2-.26-3.08,2.33,2.33,4.86,2.68,7.13.14,6.86-7.62,13.6-15.35,20.38-23.05h0l.32.12c.48,1.08-.58,2.76,1.22,3.26.16,0,.6-.95.91-1.45l4.33.18-.86,1.83-24.5,27.06C392.43,405.4,390.3,404.53,393.09,401.64Z"/><path class="cls-4" d="M377.81,412h0l.59-.64.4-.44c0,.42.26,1,.07,1.24S378.08,412.62,377.81,412Z"/><path class="cls-4" d="M378.39,411.33l-.59.64Z"/><path class="cls-4" d="M345,357.46l15,0A28.53,28.53,0,0,1,345,357.46Z"/><path class="cls-2" d="M387.31,418.29c-2.79-2.25-3.94,0-5.21,1.91-5.3,5.91-6.4,12.71-4.1,20.16,1.41,4.55,4,8.09,9.26,7.87s7.49-4,8.37-8.76c2.36-7.27-1.05-12.86-5.3-18.21,2.28-1.68,3.08-4.05,3.17-6.76a1.23,1.23,0,0,0-1.1-1.36c-.83-.18-1.25.34-1.14,1.08C391.72,417.34,389,417.3,387.31,418.29Zm-61.73,68a2.71,2.71,0,0,1-2.2-.55,1.5,1.5,0,0,1,.41-2.2c8.78-4.64,7.07-13.56,8.23-21,3.47-22.45,6.4-45,9.54-67.49q1.62-11.58,3.27-23.16c.7-5.87.7-5.87-6.5-13.76,2.19-1.4,4.49-.45,6.62-.63h0a28.53,28.53,0,0,0,15,0h4.91c.55,2.46-1.42,3.21-2.56,4-4.22,2.91-3.85,6-1.13,9.69,6.34,8.56,13.67,16.25,21,23.9,1,1.06,2,2.2,3,3.3-.47,1.06-3.62,2.2.26,3.08,2.39.54,4.62,1.89,7.6.25-2.79,2.89-.66,3.76,1.08,4.76a2,2,0,0,1,.14.77c0,2.37-.66,5.12,2.78,5.82,1.2.24,1.12,1.09,1,1.84-.48,3.8,1.68,5.14,5,5.5a21.1,21.1,0,0,1,2.85,11c-5.71,3.64-3.47,10.33-5.77,15.28-.15.31.66,1.06,1,1.61a4,4,0,0,0,0,.85c-5.6,5.76-12.11,8.26-19.8,4.78-6.72-3-11.84-13.56-10.9-21.85a33.14,33.14,0,0,1,5.39-15.28c.9-1.31,2.6-2.49,2-4.48l-.09-.28c.27.64.8.54,1.05.15s0-.82-.07-1.24c-7.77-10.07-16.14-19.7-22.61-31.85-1.36,9-2.69,17.25-3.85,25.53-3.15,22.5-5.94,45.05-9.55,67.48-.85,5.31.76,8.13,4.58,10.73.94.65,2.23,1.17,1.72,2.62s-2.07,1-3,.84A55.15,55.15,0,0,0,325.58,486.26Z"/><path class="cls-2" d="M261.65,84.93c9-5.08,5.9-5.31,11.56,2.87,12.7,18.38,26.9,35.45,43.65,50.31a53.8,53.8,0,0,1,5.24,4.61c5.57,6.48,17.5,4.92,22.16-2.18,11.2-17.1,17.11-35.95,21-55.74,3.32-17,3.33-33.87,1.28-51-1-8.25-3-16.24-4.38-24.37a8.41,8.41,0,0,1,2.26-7.91c2.4-2.41,5.1-1.48,7.82-.39,9.24,3.72,18.72,6.79,27.84,10.88,8.15,3.66,14.45,10.69,10.58,21.12-2.76,7.43-5.32,14.9-8.42,22.24C393.54,76,386.43,97,387.26,120c.63,17.31,11.6,30.44,28.83,33.51,11.45,2,22.18-1.19,32.67-4.27a158.46,158.46,0,0,0,58-31.28c5.47-4.62,9.79-3.49,12.58,3.08,4.14,9.74,2.07,18.86-3,27.5-3.92,6.64-6.08,13.4-4.18,21.2,1.64,6.72-2,10.67-8.93,9.56-24.19-3.88-48.52-5.21-73-5.82-12.07-.29-21,2.69-26.75,13.18-3.39,6.16-3.21,12.56-.61,19.27,3.53,9.13,11.51,13.29,18.66,18.61,9.72,7.23,20.68,12.08,32.33,17.07-9.1,6.28-17.42,12.29-24.46,19.84-10-.9-20.06-.89-29.76-3.91q-1.2-1.89-2.42-3.78-4.87-7.51-10-14.81a365,365,0,0,0-31.05-38.11q-7.15-7.65-14.41-15.2c-.85-.88-1.42-2.33-3.47-2a47.38,47.38,0,0,1,2.7,5.64c2.86,8.65-3.72,20-13,22a18.56,18.56,0,0,1-22.06-13.46c-2.4-10.23,7.6-23.72,19.44-21.7,1.47.26,3.79,1.41,4.53-.32.84-2-1.72-2.88-3-4-26.49-22.58-54.52-42.85-86.42-57.23-4.11-1.85-4.12-2.72-1.61-6.75C244.76,98.37,252,90.38,261.65,84.93Z"/><path class="cls-5" d="M258.08,326.56h0q-5.49-2.9-10.71-6.15Q252.58,323.66,258.08,326.56Z"/><path class="cls-5" d="M205.77,284.24c12-1.55,23.66,1.08,35.36,3.12.88,1.44,3.17,1.25,3.69,3.06.9,3.17,1.3,3.57,3.93,2a8.37,8.37,0,0,1,8.09-.33c-.33,1.93-2.79.69-2.85,3,3.18.7,7-2.76,9.7,1,.93.23,2.15.16,2.75.73,4.72,4.51,4.61,17.71-.16,22.31-2.65,2.56-5.46,5-8.2,7.43h0q-5.5-2.9-10.72-6.14c-3.48-2.17-6.86-4.45-10.17-6.84q-6.6-4.79-12.77-10.13a217.25,217.25,0,0,1-17.61-17.15c-.49-.54-1.23-1-1.09-1.84A1,1,0,0,1,205.77,284.24Z"/><path class="cls-6" d="M260.49,291.27a4.24,4.24,0,0,1,3.2,4.83c-2.73-3.76-6.52-.3-9.7-1,.06-2.28,2.52-1,2.85-3a8.37,8.37,0,0,0-8.09.33c-2.63,1.53-3,1.13-3.93-2-.52-1.81-2.81-1.62-3.69-3.06C247.85,287.3,254.19,289.18,260.49,291.27Z"/><path class="cls-5" d="M237.19,313.58c3.31,2.39,6.69,4.67,10.17,6.84C243.88,318.26,240.5,316,237.19,313.58Z"/><path class="cls-5" d="M224.42,303.45q6.18,5.34,12.77,10.13Q230.59,308.79,224.42,303.45Z"/><path class="cls-5" d="M140,120.49c7.43-3.95,14.9-6.43,24-4.7-.89-15.08-1.78-29.43-2.59-43.78-1.07-18.93-2-37.86-3.16-56.79-.23-3.8.66-5,4.88-5,22-.36,42.57,17.29,46.49,38.2,2.27,12.06-.12,22.6-5.45,33-1.2-.78-.81-2.09-1.06-3.18,3.13-9.95,2-19.56-1.9-29.13-4.87-12-14.21-18.72-26-22.56-3.18-1-3.61,1-3.45,3.59.62,9.78,1.17,19.57,1.77,29.35q1.88,30.2,3.77,60.38a9.64,9.64,0,0,0,.19,2.48c2.23,6.48,2.81,12.61-.72,19.13a45.78,45.78,0,0,1-20.83,20c-1.89.92-3.74,1.92-5.61,2.89l-.05,0c-3.42-.25-6.45,2.55-10,1.34-.14-.05-.63.95-1,1.47-6.86.59-13.23.88-18.81-5-5.88-6.23-6-12.62-3.47-18.19C121.79,133.56,129.72,126,140,120.49Z"/><path class="cls-6" d="M203.11,78.24c.25,1.09-.14,2.4,1.06,3.18-1.24,2.64-2.53,5.22-6.47,7.21C199.86,84.48,201.48,81.36,203.11,78.24Z"/><path class="cls-3" d="M344.83,371.85c-2-5.64-6.95-9.12-10.43-13.61-5.13-6.62-9.65-14.13-18.51-17.36a28.51,28.51,0,0,0-33.63,10.85q-18.75,28.31-35.8,57.65c-9.46,16.29-17.7,33.19-26.06,50.05-7.29,14.7-13.75,29.75-20.61,44.63-3.36,7.29-5.79,15-8.36,22.63-.88,2.63-2.06,3.45-4.7,2.85-13.52-3.08-26.73-7-39.29-13-8.16-3.9-16.4-7.64-24.66-11.35-2.86-1.29-5.11-3.5-8.27-4.46-2.37-.73-1.55-3.26-.41-5.07,5.5-8.77,11.12-17.47,16.52-26.3,6.28-10.29,13.83-19.68,20.74-29.52,11.76-16.78,25.4-32,38.55-47.66,9.13-10.84,19.62-20.55,29.64-30.63,6.12-6.16,12.45-12.08,18.91-17.88q7.26-6.51,14.68-12.86l4.93-4.23h0c2.74-2.47,5.55-4.87,8.2-7.43,4.77-4.6,4.88-17.8.16-22.31-.6-.57-1.82-.5-2.75-.73a4.24,4.24,0,0,0-3.2-4.83c-6.3-2.09-12.64-4-19.36-3.91-11.7-2-23.35-4.67-35.36-3.12h0a132,132,0,0,0-35.86,6.31c-3.1,1-3.84-.66-3.47-2.87a68.79,68.79,0,0,0,0-20.26c-.4-3.12,1.46-3.76,4.22-4.05,5.6-.57,11.16-1.59,16.73-2.43,4.09-.37,8.17-.72,12.26-1.1,14.82-1.39,29.65-2.75,44.47-4.21,3.21-.32,6.63,1.07,9.62-1.15,7.36,2,14.92,1.19,22.28.66,10.31-.76,20.59-.47,30.88-.71,1.4,0,3.43.73,4-1,.8-2.4-1.72-1.76-2.84-2.36a18.06,18.06,0,0,1-8.53-20.78c1.49-5.33,10.13-13.92,17.63-13,6.76.83,14.1,5.81,16.5,12.42,2.57,7.09.34,12.75-4.88,17.88-2.07,2-3.86,4.09-7.4,4.5,1.57,2.33,3.46,2.32,5.37,2.39,16.91.64,33.85,1,50.73,2.09,7.39.47,14.76,1,22.15.94h0c9.7,3,19.78,3,29.76,3.91,8.3,2.63,17.06,2.09,25.52,3.76,11.48,2.27,23.11,3.79,34.66,5.72,8.64,1.45,17.29,2.93,25.89,4.58,6.6,1.26,13,3.5,19.74,4,2.46.19,1.93,2.27,2.05,3.85.62,8.06-1.32,15.89-2.62,23.71-1.41,8.43-3.77,16.7-5.75,25-.82,3.42-3.15,4.5-5.28,2.38-8.05-8-17.89-13.44-27.65-18.85-19.29-10.7-38.67-21.18-60-27.59-11.8-3.53-23.63-6.56-35.69-9.07-6.2-1.29-12.42-1.68-18.58-2.3-18.35-1.85-36.58,9-42.55,27.4-.25.78-.56,1.55-.85,2.33-2.86,7.62-1.57,10.45,5.13,15.19,10,7.05,19.55,14.63,29.36,21.9,7.91,5.86,16.07,11.4,23.81,17.47,5,3.9,10.25,7.52,14.47,12.3.6.68,1.18,1.39,1.74,2.12-6.78,7.7-13.52,15.43-20.38,23.05-2.27,2.54-4.8,2.19-7.13-.14-1-1.1-1.94-2.24-3-3.3-7.38-7.65-14.71-15.34-21-23.9-2.72-3.66-3.09-6.78,1.13-9.69,1.14-.79,3.11-1.54,2.56-4H360l-15,0h0c-2.13.18-4.43-.77-6.62.63C345.53,366,345.53,366,344.83,371.85Z"/><path class="cls-6" d="M139.26,167.22c.32-.52.81-1.52,1-1.47,3.59,1.21,6.62-1.59,10-1.34-2.87,4.18-7.79,3.58-11.81,5.08C138.85,168.78,139.63,168.21,139.26,167.22Z"/><path class="cls-5" d="M7.41,264.57c-2.24,1.95-3.21,1.26-4.53-.93-4.71-7.8-3.66-14.44,3.24-20,9.78-8,19.66-15.78,30.13-22.78,31.65-21.17,64.8-39.42,101.2-51.22a4.55,4.55,0,0,1,1-.1c4-1.5,8.94-.9,11.81-5.08l.05,0c1.3.84,2.62,1.35,4.17.52,10.81-5.75,22.89-6.82,34.57-9.42a385.64,385.64,0,0,1,86.13-9.12c3.12,0,7.08-1.15,7.21,4.27s-3,9.71-7.69,9.72c-8.67,0-17.25.81-25.87,1.63-11.37,1.08-21.44,5.7-31.36,10.62-4.63,2.29-9.74,4-13.25,8.49-10.39,13.38-5.66,35,5.57,43.39,14.21,10.63,28.5,21.12,43.91,30-3,2.22-6.41.83-9.62,1.15-14.82,1.46-29.65,2.82-44.47,4.21-4.09.38-8.17.73-12.26,1.1-3.66-8.34-9.49-15.54-12.74-24.09-2.53-6.64-4.92-13.34-7.81-21.21-3.39,7-6.54,12.87-9.13,19a382.89,382.89,0,0,0-21.94,71.15c-6.64,31.73-8.28,64-6.74,96.32.35,7.32.66,14.64,1.27,21.94.29,3.51-1.18,4.9-4.41,5.06-11.86.58-23.19,4.14-34.72,6.5-5,1-9.52,3.88-14.4,5.48-5.5,1.8-5.78,1.56-5.22-4.05,1.53-15,3-30.09,5.16-45.07,2.9-20.73,7.42-41.13,11.81-61.58a600,600,0,0,1,23.64-80.05c2.91-7.94,5.76-15.89,8.75-23.8,1.77-4.69,2.06-9.4-1.56-13.07-3.43-3.46-8.16-3.59-12.61-2-9.06,3.22-18,6.67-26.9,10.44-22.31,9.48-42.68,22.31-62.85,35.54A89.71,89.71,0,0,0,7.41,264.57Z"/></g></g></svg>