<svg xmlns="http://www.w3.org/2000/svg" viewBox="0 0 1013.4 546.73"><defs><style>.cls-1{fill:#1d1d1b;opacity:0.74;}.cls-2{fill:#ecece7;}.cls-3{fill:#f8f8f7;}.cls-4{fill:#98182b;}.cls-5{fill:#030404;}.cls-6{fill:#15989a;}.cls-7{fill:#437579;}</style></defs><g id="Livello_2" data-name="Livello 2"><g id="Livello_1-2" data-name="Livello 1"><path class="cls-1" d="M962.76,458.77c-.68-1.81-1.4-3.62-2.12-5.43l-.78-2-.1-.19v0l-3.84-7.7,3.16-1.29a9.74,9.74,0,0,1-.24-4.5l0-.14a8.43,8.43,0,0,1,.35-1.26,10.14,10.14,0,0,1,4.54-5.46l1.61-1.53,3.44,0h3.42l2.46,2.37a23.44,23.44,0,0,1,5.46,8l1.43,3.45-1.43,3.1a16.18,16.18,0,0,0,.13,1.89,26.14,26.14,0,0,1,.1,5.4,15.23,15.23,0,0,1-2.73,7.31l-9.26,13Z"/><path class="cls-1" d="M883.8,429.51a3.08,3.08,0,0,0,.37-.33l12.43,11.61a19.34,19.34,0,0,1-2.37,2.16Z"/><path class="cls-1" d="M925.59,417.26a5.57,5.57,0,0,0,.37-.57l-9.16-5.12-.24.88,0-.05.25-.85-.06,0-1.17-.34-.43-.55-1.59-.88-2.83,0h-3.52v-4.62l3.88-2.52a10.62,10.62,0,0,1,16,11.85l-.45,1.56Z"/><path class="cls-1" d="M909.64,413.43a4.67,4.67,0,0,0-.25.67c0-.17.06-.34.09-.51a14.34,14.34,0,0,1,1.83-5.53L926,416.65a3.72,3.72,0,0,0,.42-1c0,.17-.06.34-.09.51a15.27,15.27,0,0,1-1.38,4.71Z"/><path class="cls-1" d="M955.29,427.8c.28-.39.6-.78.93-1.17l.18-.21-.11.15L970.44,436a16.72,16.72,0,0,1-1.35,1.77l-.18.2Z"/><path class="cls-1" d="M972.1,445.63a6.39,6.39,0,0,0,3-3.47l-16-5.65a10.46,10.46,0,0,1,6.31-6.58l11.84-5v18.54Z"/><path class="cls-1" d="M959.76,451.16v0l-3.84-7.7L964.4,440a6,6,0,0,0-2.91,3.51l16.21,5.15a11.05,11.05,0,0,1-6.84,7.13l-7.3,3Z"/><path class="cls-1" d="M966.34,443.46a11.19,11.19,0,0,1-3.2.48,9.82,9.82,0,0,1-7.53-3.5l-.09-.1a9.94,9.94,0,0,1-2.22-7.87,9.52,9.52,0,0,1,.28-1.26l0-.18a10.42,10.42,0,0,1,1.47-3V414.8l13.25,8.91a16.54,16.54,0,0,1,6.37,8.29l5.14,15Z"/><path class="cls-1" d="M955.29,427.8c.28-.39.6-.78.93-1.17l.18-.21-.11.15L970.44,436a16.72,16.72,0,0,1-1.35,1.77l-.18.2Z"/><path class="cls-1" d="M914.88,505.09a5.57,5.57,0,0,0-.77,3.1l-.92-18.2L931,503.43l.18,4.08a11.25,11.25,0,0,1-1.84,6.59Z"/><rect class="cls-1" x="911.92" y="510.44" width="17.01" height="0.43" transform="translate(-4.71 1012.72) rotate(-57.51)"/><polygon class="cls-1" points="904.4 442.25 898.14 440.53 898.14 422.98 910.32 426.21 910.32 423.65 918.82 423.65 918.87 432.17 918.87 440.67 916.39 440.67 916.39 445.51 904.4 442.25"/><path class="cls-1" d="M900.9,526.42c-.12-.47-.24-.95-.33-1.43h-.09v-.42a27.3,27.3,0,0,1-.34-8.07v-.18c-.1-.54-.2-1.07-.31-1.6l-.6-2.65.08-.08c-1.7-9-3.27-18.38-4.24-28H895l-.23-3.7c-.11-1.42-.22-2.85-.3-4.28l-.52-8.52h.24a134.19,134.19,0,0,1,2.15-26.33,20.77,20.77,0,0,1-2,1.79l-.15.12a21.62,21.62,0,0,1-6.93,3.48,20.57,20.57,0,0,1-25.82-14.37c-2.58-10.54,1.65-20.78,11.32-27.41,8.34-5.74,18.36-8.89,29.78-9.34,1,0,1.94-.1,2.9-.16,1.81-.1,3.67-.22,5.64-.22a39.17,39.17,0,0,1,5.37.35c11.81-14.46,24.44-24.52,38.57-30.71a84,84,0,0,1,34.54-7.36c1.55,0,3.13,0,4.67.12l19.22,1.07L999.68,372c-3.84,3.78-3.93,7.77-3.77,15.1,0,1.29.06,2.58.06,3.86q0,17.65,0,35.29c0,17.89,0,36.4-.1,54.62a12.93,12.93,0,0,0,.21,2.95l.2.1a12.26,12.26,0,0,1,4.38,3.87l.11.15,3.2,3.54-1.51,4.67a10.2,10.2,0,0,1-9.8,7.23h0a15,15,0,0,1-2.06-.17,70.1,70.1,0,0,0-10.41-.88,40.18,40.18,0,0,0-8.2.79l-.18,0a13,13,0,0,1-2.72.31,9.86,9.86,0,0,1-9.21-6.05,9.75,9.75,0,0,1,4.06-12.2c2.89-1.79,3.19-3.19,2.28-10.68-.24-2-.49-4-.56-6.17-.08-2.86-1.41-6.2-2.7-9.09l-2-4.47.39-.54-1.26-2.39a66.06,66.06,0,0,0-31.81-29.61c-.76,1.71-1.57,3.34-2.37,4.94q-.67,1.35-1.32,2.7c-.78,2.07-1.49,4.19-2.11,6.3-.47,1.61-.9,3.22-1.27,4.82l-.3,1.59a109.41,109.41,0,0,0-2.08,18.84l0,3.09c0,5.91.33,11.88.91,17.81l.44.24v3.72s1.32,4,1.68,5.11l.79.86h2.38V498l.91,1.17h5.14l0,3.77a15.63,15.63,0,0,1,6.15,4.73l7.69,9.16-12.71,4.84c-6.83,2.6-12.73,4.83-17.6,9l-10.3,8.83ZM900.29,421a19.66,19.66,0,0,1,.8,2.5c.49-1.36,1-2.7,1.55-4,.28-.7.57-1.37.87-2a29.44,29.44,0,0,0-4.35.69Zm40.42-17.65c12,6.07,19.08,10.95,25.29,17.41V385.4A68.27,68.27,0,0,0,940.71,403.31Z"/><path class="cls-1" d="M900.17,518.38V485.22L916,511.39a10.67,10.67,0,0,1,.76,1.51l-15.78,6.35a6.41,6.41,0,0,0,.67,1.27Z"/><path class="cls-1" d="M900.06,511.22l2.49-2.49a2.09,2.09,0,0,0,.2-.22l13.13,10.81a15.67,15.67,0,0,1-1.31,1.46l-14.51,14.49Z"/><path class="cls-1" d="M900.17,515.75v-2.57l2.51-2.49c.07-.08.14-.14.21-.21l2-2.5h12.58v8.52a8.55,8.55,0,0,1-3.29,6.74l-14,12.85Z"/><path class="cls-1" d="M914.39,495.8v0Z"/><path class="cls-1" d="M914.88,505.09a5.57,5.57,0,0,0-.77,3.1l-.92-18.2L931,503.43l.18,4.08a11.25,11.25,0,0,1-1.84,6.59Z"/><polygon class="cls-1" points="902.64 467 914.1 466.23 914.1 473.37 919.12 483.4 903.52 483.98 902.64 467"/><path class="cls-1" d="M899.9,482.89a11.81,11.81,0,0,1-1.61-2.57L913.61,473a5.25,5.25,0,0,0-.69-1.05l5.05,5.85-5.49,5.75-6.62,6.62Z"/><path class="cls-1" d="M900.06,511.22l2.49-2.49a2.09,2.09,0,0,0,.2-.22l13.13,10.81a15.67,15.67,0,0,1-1.31,1.46l-14.51,14.49Z"/><path class="cls-1" d="M900.17,485.22,913.9,508h3.59v8.52a8.55,8.55,0,0,1-3.29,6.74l-14,12.85Z"/><polygon class="cls-1" points="909.17 440.67 908 440.33 910.32 432.28 910.32 423.65 918.82 423.65 918.87 432.17 918.87 440.67 909.17 440.67"/><path class="cls-1" d="M907.58,447.77h0l-.27.07Z"/><path class="cls-1" d="M899,462.26a10.49,10.49,0,0,0-.69-2.3l-.69-1.6V456.5l16.33-3.33a27.17,27.17,0,0,1,1.82,6.26Z"/><path class="cls-1" d="M913.3,478.1a4.11,4.11,0,0,0,.53-.93L898,471.05a13,13,0,0,1,2.14-3.72L915.18,449v26.79Z"/><path class="cls-1" d="M899.9,482.89a11.81,11.81,0,0,1-1.61-2.57L913.61,473a5.25,5.25,0,0,0-.69-1.05l5.05,5.85-5.49,5.75-6.62,6.62Z"/><polygon class="cls-1" points="902.64 467 914.1 466.23 914.1 473.37 919.12 483.4 903.52 483.98 902.64 467"/><path class="cls-1" d="M913.3,478.1a4.11,4.11,0,0,0,.53-.93L898,471.05a13,13,0,0,1,2.14-3.72L915.18,449v26.79Z"/><path class="cls-1" d="M899,462.26a10.49,10.49,0,0,0-.69-2.3l-.69-1.6V456.5l16.33-3.33a27.17,27.17,0,0,1,1.82,6.26Z"/><path class="cls-1" d="M907.58,447.77h0l-.27.07Z"/><polygon class="cls-1" points="904.4 442.25 898.14 440.53 898.14 422.98 910.07 426.15 916.39 427.83 916.39 445.51 904.4 442.25"/><path class="cls-1" d="M883.8,429.51a3.08,3.08,0,0,0,.37-.33l12.43,11.61a19.34,19.34,0,0,1-2.37,2.16Z"/><polygon class="cls-1" points="831.7 374.06 831.7 366.6 831.71 366.58 831.71 355.36 850.38 363.8 850.38 371.34 850.37 371.36 850.37 382.49 831.7 374.06"/><path class="cls-1" d="M856.13,342.16l.66-1.62.76-1.83c3-7.17,5.64-13.49,8.31-19.81l.08-.24c1.63-4.7,4.64-7.44,9-8.14l.17,0a11.28,11.28,0,0,1,1.63-.12c2.28,0,7.83.78,10.12,8l0,.13c2.62,5.85,5.21,11.76,7.72,17.48l5.18,11.81L892,351.23a13.31,13.31,0,0,1-5.41,1.22c-3.2,0-7.25-1.2-9.79-6.39a10.65,10.65,0,0,1-10,6.34h0c-.37,0-.75,0-1.13,0h-.45l-9.06.6Z"/><path class="cls-1" d="M847.23,352.37c-6,0-10.34-4.25-10.34-10.11V320.13a10.26,10.26,0,0,1,3-7.05l.28-.29.32-.27a12,12,0,0,1,7.94-2.45c.45,0,11,.06,15.62,5.07s5.66,11.44,3,16.88c.87,1.24,1.7,2.5,2.56,3.81.66,1,1.35,2.05,2.11,3.16l1.48,2.17v11.12l-9.69.06a14.28,14.28,0,0,1-9.11-2.79,9.89,9.89,0,0,1-7,2.82Z"/><path class="cls-1" d="M835.13,486.76a9.61,9.61,0,0,1-.06-1.1v-8.51h17v8.39c0,.16,0,.31,0,.47Z"/><path class="cls-1" d="M831.6,352.4a10.31,10.31,0,0,1-7.59-3,10.74,10.74,0,0,1-2.87-8.1v-8.59c0-.8-.08-1.6-.08-2.41a9.63,9.63,0,0,1-5.38-2.82,10.16,10.16,0,0,1-2.72-7.59c.22-4.8,3.52-9.6,10.38-9.6h16.74c6.79,0,10.09,4.75,10.34,9.44v.14a10.17,10.17,0,0,1-2.75,7.55,9.79,9.79,0,0,1-5.59,2.88c.08,2.46,0,4.87,0,7.21,0,1.23,0,2.46,0,3.69v.22c.13,7.44-5,10.86-10.2,11Z"/><path class="cls-1" d="M819.37,352.35h-.86c-2.51,0-5.06,0-7.6-.08l-3.36-.06L796,352l3.29-10V342c-1.24-8.39,3.1-12.2,7-13.92l13.54-6-1.14,10.27.21,0h.51a9.81,9.81,0,0,1,10.09,9.59,10,10,0,0,1-2.68,7.45A9.87,9.87,0,0,1,819.37,352.35Z"/><path class="cls-1" d="M806.82,352.15c-4.64-.44-9.37-4-8.79-10.89,0-6.45,0-13,0-19.53v-.12a10.55,10.55,0,0,1,2.52-8.08,10.1,10.1,0,0,1,7.46-3.22h.3a10.09,10.09,0,0,1,7.54,3.07,10.49,10.49,0,0,1,2.69,8.13v.21c-.09,4.76-.21,9.55-.34,14.34l-.13,5.39-1.74.77a12.42,12.42,0,0,1-.64,4.22l-2.17,6.37Z"/><path class="cls-1" d="M801.5,352.47a10.42,10.42,0,0,1-9.81-6.4,11,11,0,0,1-10,6.4,13.15,13.15,0,0,1-5.3-1.19l-7.56-3.35,3.77-9.22c2.76-6.71,5.6-13.66,8.48-20.46l0-.14c2.42-6.7,7.46-7.73,10.25-7.74,2.34,0,7.91.76,10.33,7.83l0,.13c3.32,7.5,6.67,15.19,9.56,21.82l3.71,8.53-8.82,2.94A14.84,14.84,0,0,1,801.5,352.47Z"/><path class="cls-1" d="M782.8,472.35c-4.79,0-7.52-2.09-9-3.85-3.17-3.82-2.32-8.23-2-10.11,0-.19.07-.37.1-.56a3.91,3.91,0,0,0,0,1l16-4.87,9.15,17.43-12.94.95C783.68,472.34,783.22,472.35,782.8,472.35Z"/><path class="cls-1" d="M821,506.43a75.16,75.16,0,0,1-9.62-.64c-35.06-4.38-56.81-38.84-59.45-69-2-22.74,3-41.75,15.11-58.13,11.17-15.08,29.13-24.44,46.86-24.44A51.56,51.56,0,0,1,835.51,359l.75-1.51.48.22,0-.06-.08-6.21,2.23,3.35c6.22-7.66,13.88-11.88,22-11.88,6.53,0,12.69,2.8,17.81,8.1l.39.41.33.45c6.78,9.2,6.5,17.56-.85,24.84l-.55.54-.11.08a12.28,12.28,0,0,1-7.28,4.75l-4.79,1,6.69,2.88-34.36,20.92-4.33-7.65a14.42,14.42,0,0,1-1.17-10.75c0-.11.05-.21.08-.32a12.93,12.93,0,0,0-.51-1.48c-1.79-4.21-6.15-7.46-11.38-8.52a37.48,37.48,0,0,0-7.3-.77c-9.07,0-16.18,3.95-22.37,12.45l-.36.49c-10,16-11.83,33.44-5.84,54.64.62,2.2,1.33,4.43,2.09,6.63a10.61,10.61,0,0,1,1.85,5.11l1.58,2.23c.69,1,1.36,1.94,2,2.92,1.28,1.86,2.49,3.62,3.76,5.27,4.1,5.34,13.13,14.27,27.67,14.27a41.62,41.62,0,0,0,15.57-3.24l1.94-1.37-1.55-13c-1-8.78,3.95-17,11.6-19.07a15.38,15.38,0,0,1,4.05-.54,17.32,17.32,0,0,1,15.57,10.43c2.79,6.16,2.8,13.06,0,20.49a40.59,40.59,0,0,1-21.39,23.41A52.77,52.77,0,0,1,821,506.43Zm32.25-130.22a10.9,10.9,0,0,0,4.18,3.17l8.16,3.51-2.89-3.44a8.77,8.77,0,0,1-2.49-8.32,12.88,12.88,0,0,0,.38-2.44,2.89,2.89,0,0,0-1.55-.53,6.93,6.93,0,0,0-3.47,1.45,15.16,15.16,0,0,0-1.95,2l-.41.47A9.41,9.41,0,0,0,853.24,376.21Z"/><polygon class="cls-1" points="831.7 374.06 831.7 366.6 831.71 366.58 831.71 355.36 850.38 363.8 850.38 371.34 850.37 371.36 850.37 382.49 831.7 374.06"/><path class="cls-1" d="M835.13,486.76a9.61,9.61,0,0,1-.06-1.1v-8.51h17v8.39c0,.16,0,.31,0,.47Z"/><path class="cls-1" d="M765.94,336a9.88,9.88,0,0,1-7.35-3.11,10.15,10.15,0,0,1-2.59-7.2l-1.5-2,1.37-3a10,10,0,0,1,2.46-7,10.26,10.26,0,0,1,7.63-3.34h.39a10.06,10.06,0,0,1,8.09,3.75,10.45,10.45,0,0,1,1.91,8.85c0,.2,0,.4,0,.6.34,10.69-7,12.24-9.26,12.46C766.68,336,766.3,336,765.94,336Z"/><path class="cls-1" d="M759.17,352.44c-5.48,0-8.56-4-9.72-5.45l-.14-.19a9.41,9.41,0,0,1-1.3,2,10,10,0,0,1-7,3.5c-.35,0-.67,0-1,0a10.06,10.06,0,0,1-7.23-2.91,10.76,10.76,0,0,1-2.89-8V322.18c-.92-6.81,3.35-10.46,7.3-11.52a10.8,10.8,0,0,1,2.93-.4,11.88,11.88,0,0,1,9.16,4.7l.78.94a9.4,9.4,0,0,1,1.62-2.4,10.09,10.09,0,0,1,7.61-3.2l.9,0c5.07.36,10,4,9.58,11.31v.14c.07,5.61.13,11.41,0,17.19v.09c1.38,8.29-3.82,11.47-6.11,12.45A11.63,11.63,0,0,1,759.17,352.44Z"/><path class="cls-1" d="M722.12,352.41a22.51,22.51,0,0,1-5.63-.76c-8.38-2.17-13.38-8.83-13.38-17.82,0-1,0-2,0-3,0-2.62,0-5.33.08-8.11v-.05a10.93,10.93,0,0,1,2.39-8.91,10.38,10.38,0,0,1,8-3.39H714a10.39,10.39,0,0,1,7.85,3.61q.23.27.42.54c2.89-4,7.94-4.2,8.72-4.2a10.1,10.1,0,0,1,7.62,3.18,10.32,10.32,0,0,1,2.45,8.16c.06,1.63,0,3.19,0,4.84,0,.85,0,1.75,0,2.7v.87l-.16.78c0,.26,0,.88,0,1.34.11,3,.29,8.48-4.33,13.52C732.5,350.15,727.63,352.41,722.12,352.41Z"/><path class="cls-1" d="M739.6,503.47a12.72,12.72,0,0,1-3-.38,38.55,38.55,0,0,0-7.91-.76,84.23,84.23,0,0,0-10.82.86l-.17,0a13.05,13.05,0,0,1-2.07.17,9.62,9.62,0,0,1-9.66-7.85l-.21-1,.05-1a10.36,10.36,0,0,1,5-8.45l.28-.17.3-.14c.9-.46,1.15-.58,1.07-5.61,0-.59,0-1.18,0-1.76-.1-32-.08-64.48.07-96.5,0-4.14-.35-4.36-.86-4.66-7.48-4.46-5.62-11.14-5.17-12.43a9.69,9.69,0,0,1,9.31-6.52,13.07,13.07,0,0,1,1.57.1,55.56,55.56,0,0,1,7,.62,39.26,39.26,0,0,0,5.09.48h.24a19.87,19.87,0,0,0,2.59-.41,29,29,0,0,1,5.93-.73h.42l.89,0a9.61,9.61,0,0,1,9.9,8.24l.16,1.05-.1,1.07a11.08,11.08,0,0,1-5.37,8.42l-.25.15-.27.13a2.12,2.12,0,0,0-.54.35c-.18.3-.4,1.34-.35,4.56.15,12,.12,24.16.1,35.93q0,6.82,0,13.64v8.5h-.09c0,1.67,0,3.33,0,5,0,11.8,0,24-.1,36,0,2.75.28,3.44.37,3.58a2,2,0,0,0,.4.27c5.65,3.12,6.56,8.38,5.64,11.94A9.7,9.7,0,0,1,739.6,503.47Z"/><path class="cls-1" d="M705.16,320.4c-5,0-10.3-3.43-10.3-11,0-6.79.07-13.53.08-20.26a10.74,10.74,0,0,1,2.83-7.86,10.12,10.12,0,0,1,7.34-3h.1a10,10,0,0,1,7.39,2.94,10.59,10.59,0,0,1,2.83,7.9V291h.1v18.58c.16,7-4.62,10.43-9.43,10.78C705.79,320.38,705.47,320.4,705.16,320.4Z"/><path class="cls-1" d="M696.71,442.55a2.44,2.44,0,0,0,.27-.29l-13.79-9.95a12.89,12.89,0,0,1,1.33-1.64l1.87,1.78,13.7,2.4v1.48l-.5,1.42a14.87,14.87,0,0,1-2.09,3.89l-.36.48Z"/><path class="cls-1" d="M686.51,320.39c-12.28,0-21.59-8.94-21.66-20.8,0-12.15,9.36-21.28,21.77-21.28h.13c12.14,0,21.5,8.92,21.72,20.74a20.47,20.47,0,0,1-5.87,14.84A22.29,22.29,0,0,1,686.51,320.39Zm-.14-22a1,1,0,0,0-.94.93,1,1,0,0,0,1,1,1,1,0,0,0-.05-1.91Z"/><path class="cls-1" d="M678.15,352.52a12.84,12.84,0,0,1-3.94-.67,9.27,9.27,0,0,1-5.09-14.29c1.8-4.39,3.69-8.85,5.53-13.16,1-2.26,1.92-4.51,2.87-6.77l.06-.16c2.51-6.23,7.28-7.16,9.9-7.16l.67,0c2.53.15,7.12,1.29,9.42,7.26l.07.19c2.58,5.89,5.18,11.81,7.82,17.81L711,348.3l-8.47,3.13a14.17,14.17,0,0,1-4.89.93h0a10.63,10.63,0,0,1-10-6.39c-.09.21-.18.41-.28.61A10.1,10.1,0,0,1,678.15,352.52Z"/><path class="cls-1" d="M655.2,337.09v-4.63c0-.32,0-.63,0-.94l17,.36v5.21Z"/><path class="cls-1" d="M655.13,331.93V330.5l17-.2v.19a16.78,16.78,0,0,1,0,2.08Z"/><path class="cls-1" d="M665.8,352.41l-.64,0c-4.94-.2-9.95-3.64-9.9-10.85V330.63c0-.11,0-.21,0-.31a9.76,9.76,0,0,1-5.61-2.95,10.07,10.07,0,0,1-2.62-7.54,9.79,9.79,0,0,1,10.06-9.53l.9,0h15.63c.32,0,.65,0,1,0a9.68,9.68,0,0,1,10,10,9.83,9.83,0,0,1-8.33,10c.07,2.17,0,4.26,0,6.29,0,1.63-.07,3.16,0,4.64v.18C676.21,349,671,352.41,665.8,352.41Z"/><path class="cls-1" d="M667.29,320.48c-5.33,0-8.45-3.74-9.65-5.22l-.37-.44a9.36,9.36,0,0,1-1.36,2.1,10,10,0,0,1-7.11,3.45l-.83,0a10,10,0,0,1-7.32-3,10.48,10.48,0,0,1-2.74-8v-.19c0-2.08,0-4.11,0-6.15,0-3.88,0-7.89,0-11.88-1.67-9,5.36-11.88,6.79-12.37a11.19,11.19,0,0,1,3.6-.6c5.4,0,8.28,3.77,9.37,5.19l.21.28.27.3a9.74,9.74,0,0,1,1.81-2.66,10.12,10.12,0,0,1,7.39-3,10.72,10.72,0,0,1,1.1.05c5,.4,9.88,4.09,9.36,11.41V290c0,2,0,4,0,6,0,3.94,0,8,0,12.08h0c1.08,8.29-4.8,11.08-6.63,11.74A11.38,11.38,0,0,1,667.29,320.48Z"/><path class="cls-1" d="M643.39,352.32a10.56,10.56,0,0,1-8.09-3.72,10.93,10.93,0,0,1-2-9.1c-.16-3-.21-6-.15-9a10,10,0,0,1-8-10c0-6.09,4.21-10.47,10-10.47a15.12,15.12,0,0,1,2.9.32c1.23-.05,2.55-.07,4.1-.07h2.72l2.57,0,2.16,0h.19c9.23,0,11.76,5.76,12.44,9.2l.77,3.87-2.31,2.9a8.6,8.6,0,0,1-5.91,3.71l-.57.09v.69c.11,2.86.09,5.75-.08,8.62a10.88,10.88,0,0,1-2,9.28,10.44,10.44,0,0,1-8.37,3.65Z"/><path class="cls-1" d="M620.2,352.43c-11.58,0-18.86-7.3-19-19.07,0-2.61,0-5.14,0-7.67,0-1.49,0-3,0-4.46,0-7.67,5.25-10.67,9.75-10.91.22,0,.47,0,.7,0a10.32,10.32,0,0,1,7.43,3,10.2,10.2,0,0,1,1.1,1.33c2.82-4.13,7.87-4.29,8.64-4.29.21,0,.43,0,.65,0a10.05,10.05,0,0,1,7.38,3.43,10.44,10.44,0,0,1,2.26,8.06c0,1.54,0,3,0,4.46,0,.68,0,1.35,0,2v5c-.12,11.7-7.26,19-18.63,19.11Z"/><path class="cls-1" d="M642.36,506.45c-13.67,0-26.77-3.85-36.91-10.85-13.78-9.51-20.83-26.44-17.56-42.13s15.64-27.45,32.33-31a53.45,53.45,0,0,1,29,1.9c-4-2-8.16-4-12.4-6-4-1.91-8.17-3.89-12.26-5.95s-9.71-5.28-14.18-10.85c-5.08-6.33-7.22-13.83-6-21.11a26.07,26.07,0,0,1,8.82-15.35v-.71l3.94-2.26v-.6l4.61-2,12.38-7v2.95a58.87,58.87,0,0,1,12.48-1.33,65.1,65.1,0,0,1,18.09,2.65c9.49,2.72,13.13,8.81,14.51,13.5a16.76,16.76,0,0,1-4.32,17.1,16.39,16.39,0,0,1-12.08,5,24.22,24.22,0,0,1-4-.36c-4.59-.8-6.79-3.31-7.84-5.28a10.25,10.25,0,0,1-.11-9.23,12.8,12.8,0,0,0,.66-1.77,15.18,15.18,0,0,0-2.92-.43h-.11c-.84-.06-1.69-.09-2.54-.09a34,34,0,0,0-13.89,3,3.17,3.17,0,0,0-1.18,2.35,17.24,17.24,0,0,0,6.05,4.64l.24.11c4.31,2.14,8.68,4.06,13.31,6.09a219.53,219.53,0,0,1,21.3,10.29c10.27,5.9,21.53,13.85,27.27,28.08l.16.38.11.4a17.85,17.85,0,0,1,.52,2.25c4.28,12.14,4.64,23.43,1.1,34.47a41.42,41.42,0,0,1-2,6.15L695.15,485l-1.5-2.41a59.8,59.8,0,0,1-15.07,13.56C668.44,502.81,655.59,506.45,642.36,506.45Zm-25.1-60a20,20,0,0,0-7.42,7.39c-3.17,5.58-1.1,14.2,4.61,19.22,6.65,5.81,16.78,9.28,27.07,9.28h0c10.59,0,20-3.54,26.58-10a27.62,27.62,0,0,0,8-21.8c-.79-7.33-5-13.44-12.48-18.16-.85-.53-1.7-1.06-2.56-1.57a27.13,27.13,0,0,1,9.52,25.28c-2,12.08-13.49,22.27-26.15,23.21-1.43.1-2.75.15-4,.15-8.55,0-15.44-2.35-21.06-7.19-5.19-4.43-7.33-10.8-6-17.93A15.65,15.65,0,0,1,617.26,446.43Zm22,7.8a2.46,2.46,0,0,0,1,.22,5.09,5.09,0,0,0,2.34-.87,3.51,3.51,0,0,0,1.85-3,4.66,4.66,0,0,0-2.38-3.83,20.32,20.32,0,0,0-3.19-1.71c1.07,1.95,1.77,4.88.49,8.89Z"/><path class="cls-1" d="M696.71,442.55a2.44,2.44,0,0,0,.27-.29l-13.79-9.95a12.89,12.89,0,0,1,1.33-1.64l1.87,1.78,13.7,2.4v1.48l-.5,1.42a14.87,14.87,0,0,1-2.09,3.89l-.36.48Z"/><path class="cls-1" d="M629.43,320.46c-5.42,0-8.64-3.84-9.69-5.1l-.43-.51a9.74,9.74,0,0,1-8.5,5.55l-.78,0a10.08,10.08,0,0,1-7.28-2.93,10.59,10.59,0,0,1-2.83-7.94v-.22c0-2.17,0-4.27,0-6.37,0-4.09,0-8.33,0-12.52v0c-1.09-8.69,5.72-11.24,7.09-11.67a11.17,11.17,0,0,1,3.19-.48c5.06,0,8,3.46,9.09,4.76l.79.94a9.79,9.79,0,0,1,1.58-2.35,10.19,10.19,0,0,1,7.71-3.27c.31,0,.63,0,1,0a10.21,10.21,0,0,1,7.39,3.67,10.54,10.54,0,0,1,2,8.47c.1,6.38.11,12.07,0,17.41,1.36,8.52-5.14,11.35-6.47,11.84A11.3,11.3,0,0,1,629.43,320.46Z"/><path class="cls-1" d="M591.4,311.94l-18.93.7-2-6c-.21-.62-.39-1.22-.56-1.82a21.58,21.58,0,0,1-.48-2.13,20.39,20.39,0,0,1-.28-2l0-.39v-.44c0-.41,0-.82,0-1.22a19.46,19.46,0,0,1,.42-4.14,17.38,17.38,0,0,1,.64-2.38,19.69,19.69,0,0,1,9.19-10.8,22.65,22.65,0,0,1,28.8,5.13c6,7.34,5.83,19-.3,26.1l-.39.45-.45.39a15.6,15.6,0,0,1-3.57,2.34l-11.46,5.45ZM590,298.4a8.62,8.62,0,0,0,.08,3.83l.25,1.31.48-1.43a7.36,7.36,0,0,0,.51-3.74,3.35,3.35,0,0,0-.55,0h-.37A2.65,2.65,0,0,0,590,298.4Z"/><path class="cls-1" d="M590.3,320.58A20.82,20.82,0,0,1,575.08,314a20.31,20.31,0,0,1-2-2.48,23.19,23.19,0,0,1-2.39-4.33L566,295.9l19.66-.72,2.67,3.2a10.11,10.11,0,0,0,2.16,2.07,10.54,10.54,0,0,0,2.79-2l5.89-5.27,5.69,5.5a11.67,11.67,0,0,1,3.41,8.56v.28l.19,3.78L605.75,314A21.76,21.76,0,0,1,590.3,320.58Z"/><path class="cls-1" d="M596.56,352.16a10.59,10.59,0,0,1-8.5-3.81c-3.16-3.89-2.2-8.4-1.8-10.32a1.29,1.29,0,0,0,0-.19c-.27-3.94-.24-7.78-.21-11.5,0-1.46,0-2.91,0-4.36v-2l.87-1.79c3-6.26,7.65-7.19,10.12-7.19,2.73,0,6.65,1.08,9.83,6.22l2.36,3.82-1.83,4.11c-.52,1.18-.41,3.15-.27,5.45a38.31,38.31,0,0,1-.11,7.6.13.13,0,0,1,0,.06c.37,1.84,1.23,6.15-1.76,9.94a10.63,10.63,0,0,1-8.2,3.94Z"/><path class="cls-1" d="M588.51,330.34c-7.14,0-10.13-4.95-10.49-9.19a9.88,9.88,0,0,1,2.49-7.64,10.11,10.11,0,0,1,7.81-3.17h17a9.77,9.77,0,0,1,10.13,9.15,10,10,0,0,1-2.54,7.71,9.91,9.91,0,0,1-7.56,3.15h-.48L600,330.2l-.13.28Z"/><path class="cls-1" d="M573.22,336c-.39,0-.8,0-1.25-.06-1.64-.17-9.83-1.58-9-12.85,0-.19,0-.38,0-.56a10.74,10.74,0,0,1,2.23-8.84,10.2,10.2,0,0,1,7.92-3.43h.31a10,10,0,0,1,7.76,3.44,9.2,9.2,0,0,1,1.75,3.08l5.94,3.22-5.74,6.4C582.55,334,576.72,336,573.22,336Z"/><path class="cls-1" d="M549.28,321l17.05.36a9.82,9.82,0,0,1,10.1,9,9.92,9.92,0,0,1-10,11c-2.09,0-4.19.12-6.28.19l-10.85.35Z"/><path class="cls-1" d="M567.18,320.59a11.46,11.46,0,0,1-2.19-.22c-9.63-.41-17.28-5.63-20.13-13.82a21.18,21.18,0,0,1,7.17-23.7,21.52,21.52,0,0,1,13.44-4.61,27.17,27.17,0,0,1,10.89,2.42c6.38,2.87,7.49,8.8,5.83,13.1a9.89,9.89,0,0,1-4.43,5.15A9.18,9.18,0,0,1,582,303.4a10.57,10.57,0,0,1,.25,8.37c-1.77,4.35-5.75,5.93-7.66,6.69l-.43.18c-.25.1-.48.21-.72.32A15,15,0,0,1,567.18,320.59Zm-1.42-22.3a2.12,2.12,0,0,0-.54.06,1.28,1.28,0,0,0-.78,1l.07.25a1.3,1.3,0,0,0,1.23,1h0a11.26,11.26,0,0,1,2.4-.9c.3-.17.64-.37,1-.56l-.47-.23A12.23,12.23,0,0,0,565.76,298.29Z"/><path class="cls-1" d="M556.56,349.85a9.33,9.33,0,0,1-9.26-9.25,185.3,185.3,0,0,1,.07-19.29l0-.21c.51-6.41,5.08-9.33,9.11-9.33,4.32,0,7.92,3,9.4,7.84l.38,1.21v12.29l0,10.5L564.37,346A10.19,10.19,0,0,1,556.56,349.85Z"/><path class="cls-1" d="M560.72,352.55c-2.38,0-9.64,0-13-6.7-1.62-3.27-1.67-6.86-1.71-12.25a33,33,0,0,1,0-6.07c0-.28-.1-1.13-.17-1.71-.34-2.93-1.26-10.73,5.78-14a19.82,19.82,0,0,1,8.52-1.67c1.32,0,2.56.08,3.76.15,1,.06,1.92.12,2.71.12h.3a9.79,9.79,0,0,1,10.14,9.06A9.93,9.93,0,0,1,574.7,327a10.18,10.18,0,0,1-7.69,3.31l-2.84.08c0,.61,0,1.22,0,1.83.93,0,1.85.05,2.77.09h.15A9.76,9.76,0,0,1,577.29,342a10,10,0,0,1-2.68,7.41,10.32,10.32,0,0,1-7.71,3h-.78C564.06,352.46,562.27,352.55,560.72,352.55Z"/><path class="cls-1" d="M525,506.58c-26,0-45.86-18.78-50.6-47.84-.39-2.42-.69-4.81-1-7.13-.13-1-.25-2-.38-3l-.08-.65v-.66q.19-7.69.4-15.43l0-1.21.37-1.15a120.91,120.91,0,0,1,18.11-35.21,14.15,14.15,0,0,1-1.85.12,14.58,14.58,0,0,1-3.45-.41c-6.83-1.62-11.1-7.08-11.41-14.59-.23-5.48,2-11,6.33-15.48a28.29,28.29,0,0,1,20-8.73,23.08,23.08,0,0,1,5.84.74c1.1.29,2.21.55,3.32.81a74.65,74.65,0,0,1,7.68,2.1l.11,0a7.86,7.86,0,0,0,2.62.46,7.69,7.69,0,0,0,4.29-1.31l.29-.18a13.64,13.64,0,0,1,7.24-2.29,11.56,11.56,0,0,1,9.58,5.25,11,11,0,0,1,2.07,8.56A11.6,11.6,0,0,1,538.9,377l-.25.17c-15.3,12.24-25.6,26.09-31.49,42.33-5,13.78-5.45,27.44-1.37,40.58,3.88,12.47,12.19,19.34,23.4,19.34a36.87,36.87,0,0,0,16.12-4.15,45,45,0,0,0,8-5.71l.22-.2.24-.18a3.59,3.59,0,0,0,1.37-3l0-.23v-.22c-.24-25.75-.24-53.74,0-85.56,0-2.65-.32-3.22-.35-3.28a2.52,2.52,0,0,0-.46-.33l-.16-.09c-7.86-4.47-5.85-11.37-5.36-12.71a9.94,9.94,0,0,1,9.48-6.57,14.25,14.25,0,0,1,3,.35l.13,0a54,54,0,0,0,20.05-.31l10.21-2.09v10.42c0,.29,0,.51,0,.67a8.72,8.72,0,0,1-3.81,8.17l-.25.17-.26.15c-2,1.12-2.46,2.17-2.39,9.18.18,21.05.16,42.39.13,63q0,13.47,0,26.95v.33a37.54,37.54,0,0,0,.26,6l12.2-5.77-.44,13.89a18.5,18.5,0,0,1-17.45,18c-.55,0-1.08.06-1.61.06-4.23,0-12.88-1.35-18.53-11.41-.26.2-.53.39-.81.58A59.29,59.29,0,0,1,525,506.58Z"/><path class="cls-1" d="M448.35,473.28l-1.16-7.77c-3-19.87-6.08-40.42-8-60.91l-1.75-18.92L452.74,397c1.94,1.44,3.89,2.85,5.84,4.27,10.22,7.43,20.79,15.11,29.63,25.25l2.18,2.49-.09,3.31q-.18,7.72-.4,15.43l-.09,3.41L470,470.77c-1.52,1.51-3,3-4.55,4.58-.87.89-1.74,1.78-2.62,2.66l-11.94,12Z"/><path class="cls-1" d="M464.44,503.55a16,16,0,0,1-3.24-.38l-.26-.05-.27,0a88.84,88.84,0,0,0-9.63-.9,19.21,19.21,0,0,0-3,.42c-.93.17-2,.37-3.11.51l-.14,0a15.5,15.5,0,0,1-2.71.27,10,10,0,0,1-8.86-5.07c-1-1.77-3.67-8,3.32-13.86l0,0-.56-.72,0-3c.09-6.63-.86-13.28-1.87-20.32-.37-2.54-.74-5.16-1.07-7.79-1.65-13.43-3.42-27.09-5.12-40.29q-1.11-8.55-2.21-17.1a8.39,8.39,0,0,1-2.95.5h-1.05l-1.24-.31a9.79,9.79,0,0,1-7.32-9.35l-1.65-3.73,3.74-4.1c.6-.66,1.18-1.32,1.77-2l1.66-1.87a12.16,12.16,0,0,1-3.32-7.42l-.57-6.64,6.31-2.14a17.86,17.86,0,0,1,5.83-.94,31.19,31.19,0,0,1,5.86.68c.77.15,1.49.28,2.07.35a18.51,18.51,0,0,0,2.15.11,56.45,56.45,0,0,0,7.8-.77l1.67-.23a13.2,13.2,0,0,1,2-.16,9.88,9.88,0,0,1,9.84,7.36l.17.6.07.62a10.33,10.33,0,0,1-3.68,9.2l-1,.81-1.17.49a6.49,6.49,0,0,0-.62.29,27.76,27.76,0,0,0,.52,3.74c.22,1.21.45,2.46.6,3.81.47,4.14,1.15,8.24,1.87,12.58.32,1.9.64,3.79.94,5.69l0,.27,0,.27c1.85,20,4.9,40.32,7.86,60l1.19,8,.55,4.36q.42,3.46.86,6.93h0a24.52,24.52,0,0,1,2.47,1.89l.29.2c6.06,4.18,5.77,9.12,5.06,11.7A10.15,10.15,0,0,1,464.44,503.55Z"/><path class="cls-1" d="M431.5,500.88c-3.94,0-7.09-2.16-9.37-6.41l-.17-.32c-1.61-2.85-3.24-5.68-4.87-8.53-2.94-5.11-6-10.39-8.84-15.66a13.94,13.94,0,0,0-1.57-1.9,21.72,21.72,0,0,1-5-7.69l-.32-.92-.1-.95a11.83,11.83,0,0,1,0-2.66l.27-2.57,1.65-2c2.27-2.72,3.13-6.06,2.79-10.84l0-.38v-.38a12.59,12.59,0,0,0-1.7-6.57l-.28-.48-.21-.51c-1.54-3.67-3.37-7.41-6.37-9.9l-3.13-2.61.05-2.78-1.47-3.71,31.07-34.31,1.22.17,1.45-15.78L439.92,383a12.91,12.91,0,0,1,1.73,3.68l.19.64,1.68,12.89c2.15,16.53,4.38,33.62,6.42,50.46.3,2.44.66,5,1,7.44,1.06,7.37,2.15,15,2.05,22.95l0,1.47-.51,1.37c-2.54,6.86-7.9,10.3-11.81,12.81-1.1.7-2.13,1.36-3,2A10.08,10.08,0,0,1,431.5,500.88Z"/><path class="cls-1" d="M402.78,461.68l0-.05c-3.58-4.28-2.73-8.07-1.77-10.11a15.32,15.32,0,0,0,.56-3.23c.49-4.16,1.3-11.12,8.34-15.61L421.92,425l1,14.25c.65,9.15-1.61,16.87-6.71,22.95L409,470.87Z"/><rect class="cls-1" x="398.4" y="261.87" width="17.01" height="4.49" transform="translate(-78.19 261.12) rotate(-32.63)"/><path class="cls-1" d="M410.66,437.28c-4.34-.47-7.69-2.15-9.93-5a12.12,12.12,0,0,1-2.38-5.06c-2.34-2-4.22-5.25-4-10.78,0-.24,0-.47,0-.7l-.24-18.44,14.18,11.79c5.83,4.85,8.92,11,11.18,16.42L425,438.86Z"/><path class="cls-1" d="M394.91,437.3a15.51,15.51,0,0,1-6.6-6.6l-3.79-7.24,7.29-4.19a9.23,9.23,0,0,1,8.79-6.17,10.21,10.21,0,0,1,1.65.14,9.71,9.71,0,0,1,8.25,10.25c-.29,7-3.75,11-6.61,13.12l-4.28,3.14Z"/><path class="cls-1" d="M397.43,453.25c-.69-.89-1.41-1.76-2.12-2.63-3.32-4.05-7-8.57-9.16-14.51a10.4,10.4,0,0,1-2.69-2.81l-3-4.66,3.28-5c1.12-1.73,4.11-6.34,10-6.34a11.69,11.69,0,0,1,7.44,2.83l1.38,1.11.61,1.18,1.21.63,1.12,1.41c3.51,4.41,10.8,13.59,6.73,26.12l-4.93,15.19Z"/><path class="cls-1" d="M398.5,266.83c-3.14-4.88-6.43-9.76-9.79-14.5l13.88-9.83c3.5,4.93,6.93,10,10.22,15.13Z"/><path class="cls-1" d="M398.13,422.1a14,14,0,0,1-4.22-3.4l-.87-.26c-.3-.09-.6-.19-.91-.26-5.63-1.27-7.6-4.57-8.26-7.12a9.09,9.09,0,0,1,2.65-9L390.93,392l6.3,6.3c4.33-4.84,8.64-9.75,12.83-14.52l8.69-9.88,9.15,3.44.08.19,13.19.54-6.84,14.56-30,33.1Z"/><path class="cls-1" d="M386.86,429.41a9.11,9.11,0,0,1-8.33-5.52l-2.22-5.08,4.35-4.71,15.16-16.64V418.8a8.94,8.94,0,0,1-1.77,7.13A9.24,9.24,0,0,1,386.86,429.41Z"/><rect class="cls-1" x="386.17" y="411.65" width="0.87" height="17.01" transform="translate(-184.35 419.54) rotate(-47.32)"/><path class="cls-1" d="M361,375.47a36.8,36.8,0,0,1-9.73-1.31l2.23-16.7h15l2.24,16.7A36.82,36.82,0,0,1,361,375.47Z"/><path class="cls-1" d="M355.92,503.5a13.68,13.68,0,0,1-2.74-.3l-.28-.05a47.15,47.15,0,0,0-8.71-.82,47.75,47.75,0,0,0-7.16.55l-1.36.27a12.1,12.1,0,0,1-2.08.19,11.27,11.27,0,0,1-7-2.47l-.79-.63-.62-.8a10,10,0,0,1,1.8-14,9.19,9.19,0,0,1,.94-.64l.21-.13.22-.12c2.3-1.21,2.78-2.57,3.24-9.1.12-1.83.25-3.73.56-5.69,2.48-16,4.72-32.4,6.89-48.24q1.31-9.56,2.63-19.12,1.62-11.53,3.26-23.08c.07-.6.15-1.28.19-1.77-.76-1-2.6-3-4.54-5.16l-6.8-7.46,8.5-5.43a13.74,13.74,0,0,1,7.54-2.12c.88,0,1.65.06,2.27.11.26,0,.51.06.76.06l1.42-.12,1.45.39a19.88,19.88,0,0,0,10.53,0l1.1-.29h12.86l1.48,6.65a11.11,11.11,0,0,1-4.28,11.64c5.94,7.83,12.8,15,19.43,21.92.76.8,1.47,1.59,2.18,2.38l1,1.08,3.73,4.1-1.59,3.6,5.26,6.88h.55a6,6,0,0,0,.68-1.95,4.24,4.24,0,0,0-1.36-.57,12,12,0,0,1,1.39.39,7.11,7.11,0,0,0,0-2.06,6.56,6.56,0,0,0-2.6-4.43l.41.23,3,1.73,1.09,2.77a10.31,10.31,0,0,1,.71,3.13,9.21,9.21,0,0,1,3.67,5.73l1.83.2,2.16,3.72a29.62,29.62,0,0,1,4,15.43l-.09,4.56-3.88,2.47a16.83,16.83,0,0,0-.55,3.21c-.13,1.11-.27,2.33-.52,3.63l.53.87-.26,2.41.38,3.49-2.79,2.87c-5.77,5.94-12.17,8.95-19,8.95a25.1,25.1,0,0,1-10.39-2.35c-9.92-4.43-17.18-18.37-15.86-30.47a41.84,41.84,0,0,1,6.77-19.11l0-.06-1.34-1.71c-2.08-2.63-4.18-5.28-6.26-8-.16,1.17-.33,2.33-.49,3.5q-1.44,10.26-2.81,20.54c-2.09,15.44-4.24,31.41-6.77,47.11a5.75,5.75,0,0,0-.1,1.49,6.27,6.27,0,0,0,1.07.86l.2.13c6.9,4.39,5.38,10.56,4.76,12.34A10,10,0,0,1,355.92,503.5Zm38.58-65.27c-.9,2.38-.83,5,.14,8.12a9,9,0,0,0,.7,1.73,9,9,0,0,0,.44-1.66l.1-.55.18-.53C396.7,443.35,396.62,441.52,394.5,438.23Z"/><path class="cls-1" d="M437.15,278.42c-2.21-.2-4.51-.36-6.73-.51-8.05-.56-16.38-1.13-24.79-3.75l-3-.93L401,270.6c-.78-1.25-1.58-2.49-2.38-3.73-3.16-4.87-6.47-9.77-9.81-14.53a358.63,358.63,0,0,0-30.31-37.2l-2.16-2.3q-.57,1.24-1.26,2.46a26,26,0,0,1-16.75,12.79,27.05,27.05,0,0,1-32.09-19.64l0-.19c-1.71-7.3.4-15.61,5.65-22.23a27.71,27.71,0,0,1,8.53-7.24c-26.55-21.65-50.56-37-74.84-48-2.09-.94-6.43-2.89-7.89-7.7s1-8.88,2.55-11.3C247.43,100.17,255.87,91.73,266,86c1.29-.72,2.31-1.34,3.14-1.85,2.51-1.52,4.67-2.83,7.74-2.83,5.63,0,8.25,4.35,9.66,6.68.55.91,1.23,2,2.2,3.44,13.46,19.49,27.23,35.39,42.09,48.6a61.9,61.9,0,0,1,5.82,5.15l.23.23.2.24a4.48,4.48,0,0,0,3.23,1.13,6.62,6.62,0,0,0,5.37-2.44c9.29-14.18,15.39-30.44,19.77-52.71,2.91-14.88,3.29-30.7,1.18-48.35-.58-4.77-1.52-9.47-2.52-14.45-.6-3-1.22-6.14-1.76-9.28A17,17,0,0,1,366.94,4a13.21,13.21,0,0,1,9.49-4,19.8,19.8,0,0,1,7.49,1.74c3.51,1.41,7.16,2.77,10.69,4.08,5.73,2.12,11.65,4.32,17.46,6.93,14,6.29,19.92,18.78,15.08,31.84-.74,2-1.46,3.95-2.18,5.93-2,5.45-4,11.09-6.38,16.66-7.9,18.73-15.11,39.1-14.32,61,.5,13.59,8.65,23.1,21.83,25.45a33.54,33.54,0,0,0,5.85.49c7.44,0,14.85-2.18,22.7-4.48l.23-.07A149,149,0,0,0,509.77,120c3.8-3.21,7.69-4.83,11.57-4.83,3.6,0,10.25,1.44,14.34,11.07,4.77,11.22,3.6,23-3.49,35.12-3.42,5.79-4.39,10.23-3.25,14.89,1.37,5.61.47,10.81-2.53,14.63A15.37,15.37,0,0,1,514,196.49a23.08,23.08,0,0,1-3.56-.29c-25.53-4.1-50.66-5.19-71.87-5.72l-1.33,0c-9.43,0-14.24,2.38-17.75,8.79-1.32,2.4-2.53,5.94-.14,12.11,2,5.1,6.3,8.13,11.76,12,1.32.93,2.69,1.88,4.05,2.9,8.72,6.48,18.59,10.93,30.6,16.07l14.16,6.07-12.68,8.75c-8.41,5.8-16.5,11.6-23.07,18.64l-2.83,3Z"/><path class="cls-1" d="M262.63,342.58c-3.84-2-7.62-4.19-11.25-6.45l9-14.44c3.29,2.05,6.72,4,10.19,5.85Z"/><path class="cls-1" d="M262.63,342.58c-3.83-2-7.62-4.18-11.24-6.43s-7.15-4.64-10.66-7.18c-4.59-3.33-9.08-6.89-13.36-10.59a228.33,228.33,0,0,1-18.25-17.76l0,0a9.9,9.9,0,0,1-3.28-8.81,9.41,9.41,0,0,1,.45-1.83l1.73-5,5.2-.67a67.25,67.25,0,0,1,8.64-.54c8.67,0,17,1.5,25,3l4.28.76,3.8.66,1.09,1.79a12.74,12.74,0,0,1,2.33,1.59A17,17,0,0,1,269.16,293l4.43,2.22a12.29,12.29,0,0,1,2.62,1.47,10.13,10.13,0,0,1,4.6,2.48c3.88,3.71,6.11,9.91,6.13,17,0,3.47-.59,12.13-6.24,17.58-2.35,2.27-4.78,4.41-7.13,6.49l-5.74,5.09Z"/><path class="cls-1" d="M266.92,311.8a16.66,16.66,0,0,1-3.48.4,12.78,12.78,0,0,1-2.77-.3l-6.85-1.51v-.17c-3.4-.42-6-2.5-7.66-6.21a11.09,11.09,0,0,1-3.77-3.7l-7.82-12.79,15.44-.16c7.84,0,14.87,2.09,21.41,4.25a12.77,12.77,0,0,1,9.17,14.4l-3.37,20Z"/><path class="cls-1" d="M251.39,336.15c-3.82-2.37-7.32-4.73-10.71-7.21l10-13.75c3.21,2.31,6.47,4.5,9.69,6.51Z"/><path class="cls-1" d="M240.71,329c-4.57-3.31-9.06-6.88-13.34-10.58l11.12-12.86c3.93,3.38,8,6.64,12.21,9.68Z"/><path class="cls-1" d="M139.05,182.39c-6.86,0-12.49-2-16.73-5.83-8.09-7.39-8.93-15.22-8.22-20.5,2.27-16.65,22.68-28.68,31.35-33.08a87,87,0,0,1,18-6.91L158.35,25.5c-.11-2-.41-7.42,3.61-11.44,3.69-3.69,8.54-3.69,10.13-3.69h.31a56.39,56.39,0,0,1,47.53,27.85A56.39,56.39,0,0,1,220,93.31l-15.8-5.46c1.17-7.9,1.49-19.4-3.59-29.35a29.14,29.14,0,0,0-10.77-11.71c.72,7.28,1.89,15.13,3.1,23.28,4.25,28.6,9.07,61-3.91,85.22C182.6,167.24,157.79,182.39,139.05,182.39Z"/><path class="cls-1" d="M204.09,82.8l10.67-20.43,5.06,22,3.71,2.42-3.15,6.7a21.43,21.43,0,0,1-10.33,11.19l-23.57,11.91S203,85,204.09,82.8Z"/><path class="cls-1" d="M196.7,546.73a14.82,14.82,0,0,1-3.34-.4c-16.39-3.73-29.44-8.06-41.07-13.62-8.29-4-16.66-7.75-24.48-11.26a33.88,33.88,0,0,1-4.48-2.54,13.6,13.6,0,0,0-2.78-1.54,10.55,10.55,0,0,1-6.9-6.38c-1.29-3.47-.66-7.51,1.77-11.36,1.93-3.09,3.9-6.19,5.86-9.28,3.51-5.54,7.14-11.27,10.6-16.93,4.36-7.15,9.3-13.86,14.07-20.35,2.31-3.15,4.71-6.4,7-9.62,9.49-13.54,20.23-26.15,30.62-38.35q4.2-4.94,8.38-9.89c7.09-8.42,15-16.15,22.54-23.64,2.54-2.5,5.08-5,7.58-7.52,5.7-5.73,12-11.69,19.26-18.21,4.89-4.38,9.88-8.75,14.83-13l4.85-4.16,2.5-2.23c1.88-1.67,3.66-3.25,5.36-4.88,1.15-1.51,1.41-6.23.7-8.87l-7-1.74.69-4.13a44.43,44.43,0,0,0-13.09-2.47H249l-.77-.13-4.87-.86c-7.48-1.33-14.56-2.6-21.57-2.6a50.47,50.47,0,0,0-6.4.39l-.39.05-.39,0a123.45,123.45,0,0,0-33.55,5.9,13.59,13.59,0,0,1-4.23.71,10.22,10.22,0,0,1-8-3.59,11.32,11.32,0,0,1-2.3-9.39,60,60,0,0,0,0-17.7l0-.17a11.69,11.69,0,0,1,2.27-9c3.07-3.88,7.74-4.37,9.49-4.56,3.8-.38,7.55-1,11.52-1.62,1.61-.26,3.22-.52,4.84-.76l.25,0,5.12-.45,7.37-.67,10.29-1c11.19-1,22.76-2.12,34.13-3.24a17,17,0,0,1,1.94-.1c1,0,1.85.07,2.63.12.5,0,1,.07,1.33.07l2.8-2.07,4,1.08a32.33,32.33,0,0,0,8.59,1c2.87,0,5.81-.22,8.91-.45l1.94-.14c5.77-.43,11.53-.54,17.15-.59a26.51,26.51,0,0,1-1.2-18.14c2.18-7.79,12.89-19.21,24.67-19.21a17.32,17.32,0,0,1,2.17.13c10.44,1.28,20.08,8.66,23.46,18A23.24,23.24,0,0,1,348.82,255l.82,0c12.08.4,24.57.82,36.89,1.61l2.1.14c6.33.41,12.31.79,18.33.79l2.42,0,1.27.4c6.5,2,13.48,2.49,20.86,3,2.33.16,4.75.33,7.16.55l.91.08.88.28c4,1.27,8.47,1.67,13.19,2.09a103.45,103.45,0,0,1,11.41,1.44c7.25,1.43,14.77,2.59,22,3.71,4,.62,8.24,1.27,12.38,2,9.7,1.63,17.85,3,26.09,4.62,2.59.49,5.1,1.11,7.52,1.71a70.12,70.12,0,0,0,11.24,2.16c1.67.13,9.88,1.28,9.9,11.43,0,.11,0,.22,0,.32.57,7.49-.69,14.46-1.92,21.19-.28,1.5-.55,3-.8,4.49-1.07,6.41-2.64,12.65-4.16,18.69-.58,2.3-1.16,4.59-1.7,6.89-1.46,6.08-5.91,10-11.33,10A11.68,11.68,0,0,1,526.1,349c-7.17-7.14-16.15-12.11-25.66-17.38l-.11-.06c-20.14-11.17-38.43-20.91-58.32-26.89-11.9-3.56-23.35-6.46-35-8.89A126.22,126.22,0,0,0,393.22,294l-3.89-.37a31.22,31.22,0,0,0-3.21-.16,31.7,31.7,0,0,0-30.4,21.72c-.22.68-.48,1.39-.75,2.09l-.22.58a15.09,15.09,0,0,0-.86,2.91,19.86,19.86,0,0,0,2.93,2.38c6.44,4.53,12.74,9.32,18.84,14,3.49,2.65,7.11,5.4,10.68,8.05,2.91,2.16,5.94,4.33,8.87,6.43,5,3.58,10.14,7.27,15.12,11.18l2.84,2.18a84.41,84.41,0,0,1,12.76,11.18c.71.8,1.42,1.67,2.11,2.57l4.26,5.55-9.46,10.74c-5.08,5.8-10.35,11.79-15.61,17.63a13,13,0,0,1-9.68,4.57,13.66,13.66,0,0,1-9.78-4.39l-.14-.14-.14-.15-1.08-1.21c-.58-.66-1.13-1.28-1.64-1.8l-.11-.11c-8.1-8.4-15.34-16.07-21.73-24.77a22.64,22.64,0,0,1-2-3.12l-15.64,1.74c-.74-2.09-2.64-4.08-4.85-6.4a61.36,61.36,0,0,1-4.29-4.84c-.77-1-1.53-2-2.29-3-3.87-5.18-7.21-9.65-12.41-11.54A20,20,0,0,0,297.84,365c-12.33,18.62-24.29,37.88-35.51,57.19-8.52,14.67-16.23,30.24-23.69,45.29l-2.11,4.27c-4.85,9.77-9.43,19.94-13.86,29.78-2.16,4.79-4.4,9.75-6.64,14.63a181.14,181.14,0,0,0-7,18.68l-1,3.1C205.34,545.87,199.21,546.73,196.7,546.73Z"/><path class="cls-1" d="M138.61,175.49l-.26-.68,2.18-3.54.11-.2c.74-1.32,3-5.33,8.12-5.33h1.12l.9.24c.32-.08.75-.23,1.1-.34a19.9,19.9,0,0,1,6.46-1.25c.35,0,.71,0,1.06,0l14.76,1.09-8.38,12.2c-3.95,5.76-9.8,6.93-13.3,7.63a19.52,19.52,0,0,0-2.54.61l-21.81,8.13Z"/><path class="cls-1" d="M81.24,459.17A9.74,9.74,0,0,1,73.93,456c-3.14-3.48-2.71-7.79-2.37-11.25l.41-4c1.38-13.56,2.8-27.59,4.8-41.4,2.71-19.41,6.87-38.74,10.89-57.43l1-4.73a610.42,610.42,0,0,1,24-81.23c.82-2.26,1.67-4.57,2.51-6.88,2-5.56,4.11-11.3,6.25-17,1.21-3.21.55-3.87.34-4.09a1.53,1.53,0,0,0-1.31-.45,7.36,7.36,0,0,0-2.39.49c-9.26,3.29-17.91,6.65-26.44,10.26-22,9.37-42.47,22.34-61.5,34.82a80.42,80.42,0,0,0-8.67,6.39,11.9,11.9,0,0,1-7.74,3.19c-3.9,0-7.13-2.08-9.61-6.19-6.92-11.47-5-22.77,5.19-31,8.83-7.23,19.43-15.67,30.74-23.23,37.11-24.82,69.94-41.42,103.3-52.24l.42-.14.42-.09c.36-.07.72-.13,1.09-.18a38,38,0,0,1,3.87-.92,17.49,17.49,0,0,0,2.69-.67l2.47-3.59h7l.33.21c8.5-4,17.23-5.63,25.7-7.23,2.91-.55,5.67-1.07,8.41-1.68A394.31,394.31,0,0,1,281,146.43h2.77c.26,0,.59,0,.92,0,.64,0,1.28-.07,1.91-.07,7.61,0,12.64,5,12.82,12.68a18.73,18.73,0,0,1-5,13.71,15.46,15.46,0,0,1-11.13,4.71c-8.36,0-16.86.81-25.08,1.59-9.92.95-19.09,5.17-28.39,9.78-.93.46-1.87.9-2.82,1.33-3.3,1.53-5.91,2.74-7.51,4.78-4.39,5.65-4.21,12.68-3.71,16.36.85,6.34,3.8,12.08,7.67,15,14.2,10.62,28.17,20.86,43.07,29.44l11.25,6.48-10.44,7.73a15.39,15.39,0,0,1-9.5,3c-1,0-1.86-.06-2.63-.11-.55,0-1.07-.08-1.44-.08h-.26c-11.28,1.11-22.74,2.18-33.81,3.22l-10.71,1-7.4.66-11,1-2.46-5.6a94.07,94.07,0,0,0-5.45-10,92.65,92.65,0,0,1-7.46-14.46c-.31-.82-.62-1.64-.92-2.46-.08.18-.16.36-.23.54a376,376,0,0,0-21.45,69.54c-6.06,29-8.21,59.8-6.57,94.21l.12,2.61c.3,6.27.6,12.75,1.13,19,.33,4.08-.65,7.46-2.93,10.06s-5.47,4-9.54,4.2c-7.68.38-15.27,2.17-23.3,4.06-3.3.78-6.7,1.58-10.13,2.28a34.12,34.12,0,0,0-6.78,2.53,67.8,67.8,0,0,1-6.68,2.7A21.33,21.33,0,0,1,81.24,459.17Z"/><path class="cls-2" d="M971.92,452.52a6.71,6.71,0,0,1-1.2,3.26c-1-2.63-2.05-5.26-3.08-7.89l0-.05a3,3,0,0,0,1.93-1.64,2.68,2.68,0,0,0,.07-.27c.21-1.1-.51-2.36-1-3.64-.36-1-1.61-2.07-1.42-3.1a.83.83,0,0,1,0-.15c.14-.45.59-.88,1.53-1.28l0,0a15.12,15.12,0,0,1,3.49,5.09,6.77,6.77,0,0,0-.58,2.12C971.4,447.43,972.18,450,971.92,452.52Z"/><path class="cls-3" d="M889.06,436.2a11.71,11.71,0,0,0,1.33-1.21A10.84,10.84,0,0,1,889.06,436.2Z"/><path class="cls-3" d="M918.6,410.32a2.12,2.12,0,0,1,.26,1.75,3.39,3.39,0,0,0-.27.39,2.2,2.2,0,0,1,.21-.32,2.11,2.11,0,0,0-1.43-2.62,2.15,2.15,0,0,0-1.7.23.06.06,0,0,0,0,0A2.12,2.12,0,0,1,918.6,410.32Z"/><path class="cls-3" d="M917.33,417.07c.7-1.48.43-3.23,1.26-4.6C917.81,413.85,918.06,415.6,917.33,417.07Z"/><path class="cls-3" d="M963.3,431.39c-.31.48-.77.94-1.12,1.4C962.52,432.32,963,431.87,963.3,431.39Z"/><path class="cls-3" d="M967.24,439c.14-.45.59-.88,1.53-1.28,0,0,0,0,0,.05A2.58,2.58,0,0,0,967.24,439Z"/><path class="cls-3" d="M969.55,446.2c-.19.64-.74,1.21-1.91,1.69l0-.05A3,3,0,0,0,969.55,446.2Z"/><path class="cls-2" d="M966.68,434.77c-1.58-.41-3.43,1.54-4.57.19a1.49,1.49,0,0,1-.4-1.21,1.6,1.6,0,0,1,0-.21,2.46,2.46,0,0,1,.42-.75c.35-.46.81-.92,1.12-1.4a2.42,2.42,0,0,0,.29-.58.08.08,0,0,0,0,0A7.92,7.92,0,0,1,966.68,434.77Z"/><path class="cls-2" d="M963.3,431.39c-.31.48-.77.94-1.12,1.4C962.52,432.32,963,431.87,963.3,431.39Z"/><path class="cls-2" d="M922.65,507.8a2.75,2.75,0,0,1-.44,1.62,2.93,2.93,0,0,0,.4-1.65Z"/><path class="cls-2" d="M920.6,510.77h0l-.36-.23Z"/><path class="cls-2" d="M918.59,412.47c-.83,1.37-.56,3.12-1.26,4.6C918.06,415.6,917.81,413.85,918.59,412.47Zm0-2.15a2.12,2.12,0,0,0-2.92-.61.06.06,0,0,1,0,0,2.15,2.15,0,0,1,1.7-.23,2.11,2.11,0,0,1,1.43,2.62,2.2,2.2,0,0,0-.21.32,3.39,3.39,0,0,1,.27-.39A2.12,2.12,0,0,0,918.6,410.32Zm-8.28,21.84h0Zm-3.67,1.89,1.24.34v0l-1.24-.33Z"/><path class="cls-2" d="M992.48,491.55c-4.56-2.27-5.12-6-5.12-10.72.19-30,0-59.88.11-89.88,0-8.52-1.49-17.39,6.25-25a76.21,76.21,0,0,0-35.33,6.53c-14.91,6.54-26.54,17.16-36.54,29.71-.86,1.08-1.22,3-3.22,2.4-5.21-1.66-10.56-.86-15.8-.66-9.06.36-17.7,2.62-25.31,7.86-6.87,4.71-9.6,11.29-7.87,18.36,1.57,6.39,8.66,10.25,15.13,8.25a13.22,13.22,0,0,0,4.26-2.13,11.71,11.71,0,0,0,1.33-1.21,10.1,10.1,0,0,0,2.7-8.46,12.13,12.13,0,0,0-.69-2.51c-.82.08-1,.74-1.19,1.36-1,3.61-3.94,4.08-6.74,3.25s-3.83-3.43-3.53-6.43a10.31,10.31,0,0,1,5.39-7.93c9.12-5.56,19-6.62,29.31-4.56l0,0a.06.06,0,0,0,0,0,2.11,2.11,0,0,1,3.18,2.36l-.06.07a2.11,2.11,0,0,0-1.43-2.62,2.15,2.15,0,0,0-1.7.23c-.68,4.71-3.42,8.6-5.15,12.89a100.62,100.62,0,0,0-3.87,11.4l1.24.33c.32-1.21.67-2.5,2.38-2.22a1.66,1.66,0,0,0-1.71.69,4.94,4.94,0,0,0-.63,1.54h0v0l-1.24-.34c-3.77,13.78-4.55,27.6-3.69,41.45h0c.79,13.09,3,26.2,5.6,39.32l.05-.06v0c.22-.22.43-.45.62-.67a7.71,7.71,0,0,1-.62.69,4.22,4.22,0,0,1,.08,1l0,0v0a2.1,2.1,0,0,1,.15.3l0,.06a2.1,2.1,0,0,1,.15.3s0,0,0,0h0s-.21.18-.32.28a19,19,0,0,0,.45,7.48c6.42-5.5,14-8.15,21.64-11.07-1.32-1.57-2.41-2.51-4-2.51l-.13.05-4-2.93a2.75,2.75,0,0,1-.44,1.62,2.93,2.93,0,0,0,.4-1.65l0,0v-.08h0l-3-2.84v0l-2.44-3.12-.58-.82v-.1h0a7.36,7.36,0,0,0-2-3.84v-.08c-.06-.34-.11-.69-.17-1v0c-.88-2.71-1.78-5.41-2.67-8.12v0c-2.9-1.58-1.32-5.06-2.77-7.26l0,0c.75,1.1.72,2.53.87,3.88a3.89,3.89,0,0,0,1.93,3.43,204.74,204.74,0,0,1-1.43-23.09h-.07A118,118,0,0,1,912.56,441h0q.75-3.6,1.79-7.13t2.34-7h0c1.79-3.81,3.88-7.52,5.28-11.49,1.31-3.78,3.31-3.43,6.31-2.27a74.54,74.54,0,0,1,39.38,34.84l0,0,0-.05a3,3,0,0,0,1.93-1.64,2.68,2.68,0,0,0,.07-.27c.16-1.08-.54-2.32-1-3.57-.37-1-1.67-2.12-1.4-3.17a.83.83,0,0,1,0-.15c.14-.45.59-.88,1.53-1.28a4.59,4.59,0,0,0-2.11-2.95c-1.57-.41-3.43,1.54-4.57.19a1.38,1.38,0,0,1-.38-1.25,1.6,1.6,0,0,1,0-.21,2.46,2.46,0,0,1,.42-.75c.34-.47.79-.92,1.12-1.4a2.42,2.42,0,0,0,.29-.58c-8-9.66-15.77-15-36.08-24.43,11.54-16.7,26.9-27.59,47-32.7v33.7c0,11.64,0,23.28-.07,34.92,0,.65.86,2.11-.85,2-.46,0-.87-.93-1.3-1.43a7.11,7.11,0,0,0-.58,2.08c-.31,2.48.47,5.09.21,7.57a8.13,8.13,0,0,1-.13.84h0a6.23,6.23,0,0,1-1.07,2.45c1.75,3.92,3.32,8.08,3.43,12.27.29,8.52,4.29,18.15-5.71,24.35-.56.35-1.06.9-.75,1.64.53,1.24,1.77.88,2.59.72,7.18-1.47,14.33-1.06,21.5,0,.89.13,2.07.33,2.58-1.25C993.8,492.93,993.28,492,992.48,491.55ZM890.39,435a10.84,10.84,0,0,1-1.33,1.21A11.71,11.71,0,0,0,890.39,435Zm17.19,12.78h0l-.27.07Zm-2,27.63-2.4.09,2.39-.16a.17.17,0,0,0,0,.07h0a3.18,3.18,0,0,1,.06-.43c0,.12,0,.24,0,.36a3.75,3.75,0,0,0,.24,1.15A3.3,3.3,0,0,1,905.61,475.4Zm.86,2.09a3.31,3.31,0,0,1-.46-.73,3.41,3.41,0,0,0,.48.71Zm.21-4.72a4.74,4.74,0,0,0-.74,1.24,4.45,4.45,0,0,1,.74-1.28Zm-.59-16.16v-.11a18.8,18.8,0,0,1,1.25,4.31A18.78,18.78,0,0,0,906.09,456.61Zm1.54-5.83-.14-.13.14.12Zm13,59.94a3,3,0,0,0,1.16-.75,2.76,2.76,0,0,1-1.17.79h0l-.32-.21Zm-8.77-15.05c-.17-2.65-.17-5.3-.17-7.95C911.75,490.37,911.72,493,911.88,495.67Zm-1.53-63.51h0Zm1.07.71a1.52,1.52,0,0,1,.2.6A1.93,1.93,0,0,0,911.42,432.87Zm3.94-13.9a4,4,0,0,0-.91.61,3.73,3.73,0,0,1,1-.68,4.52,4.52,0,0,0,1.25-.87A4.29,4.29,0,0,1,915.36,419Zm2-1.9c.7-1.48.43-3.23,1.26-4.6C917.81,413.85,918.06,415.6,917.33,417.07Z"/><path class="cls-3" d="M908.83,516.08a1.51,1.51,0,0,0-.15-.28v0A2.1,2.1,0,0,1,908.83,516.08Z"/><path class="cls-3" d="M909.19,514.08a7.71,7.71,0,0,1-.62.69v0C908.79,514.53,909,514.3,909.19,514.08Z"/><path class="cls-3" d="M909,516.5s-.21.18-.32.28,0,0,0-.06.26-.18.3-.23Z"/><path class="cls-3" d="M914.39,495.8v0Z"/><path class="cls-3" d="M922.65,507.8a2.75,2.75,0,0,1-.44,1.62,2.93,2.93,0,0,0,.4-1.65Z"/><path class="cls-2" d="M905.61,475.4l-2.4.09,2.39-.16A.17.17,0,0,0,905.61,475.4Z"/><path class="cls-2" d="M906.49,477.47l0,0a3.31,3.31,0,0,1-.46-.73A3.41,3.41,0,0,0,906.49,477.47Z"/><path class="cls-2" d="M909.19,514.08a7.71,7.71,0,0,1-.62.69v0C908.79,514.53,909,514.3,909.19,514.08Z"/><path class="cls-2" d="M909,516.5s-.21.18-.32.28v-1a2.1,2.1,0,0,1,.15.3l0,.06a2.37,2.37,0,0,1,.13.34h0Z"/><path class="cls-3" d="M910.35,432.16h0Z"/><path class="cls-3" d="M907.58,447.77h0l-.27.07Z"/><path class="cls-3" d="M907.34,460.81a18.78,18.78,0,0,0-1.25-4.2v-.11A18.8,18.8,0,0,1,907.34,460.81Z"/><path class="cls-3" d="M906.68,472.73v0a4.74,4.74,0,0,0-.74,1.24A4.45,4.45,0,0,1,906.68,472.73Z"/><path class="cls-3" d="M906.49,477.47l0,0a3.31,3.31,0,0,1-.46-.73A3.41,3.41,0,0,0,906.49,477.47Z"/><path class="cls-2" d="M905.61,475.4l-2.4.09,2.39-.16A.17.17,0,0,0,905.61,475.4Z"/><path class="cls-2" d="M906.68,472.73v0a4.74,4.74,0,0,0-.74,1.24A4.45,4.45,0,0,1,906.68,472.73Z"/><path class="cls-2" d="M907.34,460.81a18.78,18.78,0,0,0-1.25-4.2v-.11A18.8,18.8,0,0,1,907.34,460.81Z"/><path class="cls-2" d="M907.58,447.77h0l-.27.07Z"/><path class="cls-2" d="M907.89,434.37v0l-1.24-.34h0Z"/><path class="cls-3" d="M890.39,435a10.84,10.84,0,0,1-1.33,1.21A11.71,11.71,0,0,0,890.39,435Z"/><path class="cls-3" d="M841.88,369.29v0l-1.66-.75v0Z"/><path class="cls-2" d="M883.66,340.24c-.87-3-2.18-4.84-5.83-4.45-3.37.36-7.06-.71-8.08,4.24-.34,1.67-.52,4.15-3.47,3.84a11.36,11.36,0,0,0-1.65,0v-.05c3.31-7.92,6.17-14.77,9.06-21.61.55-1.32.73-3,2.57-3.3,2.19-.31,2.2,1.67,2.76,2.91,3.22,7.2,6.37,14.42,9.53,21.62C884.84,345.07,884.29,342.41,883.66,340.24Zm-9.73-8.15c.71,1.76,3.9.56,6.38.59-1.28-2.64-2.33-4.83-4-8.35-1.17,3.37-3.06,6.08-2.38,7.76Z"/><path class="cls-2" d="M845.9,319c1.42-1.19,10.23.1,11.82,1.84,2.74,3,3.09,6.35.27,9.33-1.54,1.62-1.33,2.33,0,3.91,2.25,2.77,4.11,5.87,6.69,9.66v.05c-2.48,0-5,.31-6.45-2.95a17.47,17.47,0,0,0-5.21-7.15,3.73,3.73,0,0,0-3.22-.76c-1.73.37-.93,1.87-1,2.87-.12,2.16,0,4.33,0,6.49,0,1-.41,1.53-1.46,1.54s-1.9-.23-1.9-1.61v-22A1.8,1.8,0,0,1,845.9,319Zm2.87,5.75c.38,1.83-1.78,5,2.43,5,2.64,0,4.59-.92,4.78-3.66s-1.39-4.2-4.55-4.31C849.51,321.5,848.27,322.5,848.77,324.79Z"/><path class="cls-2" d="M843.6,486c0-.11,0-.23,0-.35h0C843.59,485.78,843.6,485.89,843.6,486Z"/><path class="cls-2" d="M823.77,321.85c-1.08.22-2.4.32-2.32-1.58.07-1.48,1-1.45,2-1.45h16.4c1,0,2-.06,2.08,1.4.07,1.79-1.24,1.87-2.35,1.63-6.32-1.37-6.33,2.47-6.07,6.95.24,4.13,0,8.28,0,12.42,0,1.31.24,2.64-1.86,2.68s-2.08-1.07-2.06-2.52v-8.95h0a26.7,26.7,0,0,1,0-4C830.39,323.8,829.57,320.7,823.77,321.85Z"/><path class="cls-3" d="M809.67,335.84c-.49,4.42,1.72,5.7,5.73,5a15,15,0,0,1,3,0c1,.07,2.45-.39,2.53,1.45s-1.31,1.54-2.38,1.54c-3.63,0-7.26-.09-10.89-.14C808.51,341.11,805.71,337.6,809.67,335.84Z"/><path class="cls-2" d="M807.63,343.69c-1.55-.15-1.1-1.37-1.1-2.23q-.06-9.9,0-19.81c0-1.2-.52-2.79,1.66-2.84s1.86,1.41,1.83,2.71c-.09,4.77-.21,9.54-.33,14.32C805.71,337.6,808.51,341.11,807.63,343.69Z"/><path class="cls-2" d="M784.41,341.5c-.86,2.42-2.27,3-4.53,2,3-7.32,6-14.66,9.08-21.94.46-1.08.68-2.68,2.51-2.69s2,1.55,2.46,2.68c3.2,7.23,6.36,14.47,9.64,22-2.19.73-3.9.74-4.4-1.89-1-5.05-4-5.93-8.83-5.9C785.76,335.71,785.4,338.66,784.41,341.5Zm4.19-8.89h6.67l-4.1-8.35c-.61,3.72-2.59,5.59-2.57,8.33Z"/><path class="cls-2" d="M780.43,457.87l3.12,5.95C777.94,464.23,780.69,460.26,780.43,457.87Z"/><path class="cls-3" d="M872.59,356.88c-10.21-10.58-23.9-5.49-32.37,11.66l1.66.75v0l-1.66-.75c-.37.74-.71,1.49-1.06,2.27-22.89-16.08-50.91-6.54-65.29,12.86-11.67,15.73-15.14,33.12-13.46,52.32,2.15,24.59,20.06,57.34,52.06,61.34,11.72,1.51,23.16.27,33.39-6.47h0a32,32,0,0,0,17.35-18.75c1.7-4.56,2.34-9.38.21-14.1-1.8-4-6-6.19-9.63-5.19-3.51,1-5.95,5.23-5.4,9.86,2-2,4.2-4.08,6.94-2.41s2.82,4.64,2.55,7.57a16.2,16.2,0,0,1-3.83,9c-2.95,3.58-6.72,6.16-10.47,8.77v0c-23.35,9.85-42.81,1.2-54-13.38-2.11-2.74-4-5.64-6-8.46-5.61.41-2.86-3.56-3.12-6a2.14,2.14,0,0,0-.91-2h0c-.14-.47-.26-.94-.41-1.4q-1.26-3.62-2.28-7.22c-6.06-21.46-5.44-42.42,7.44-62.46a4.36,4.36,0,0,0-1.33-.66c-.25,0-.51-.05-.76-.09l.83.09a4.36,4.36,0,0,1,1.33.66c9.57-13.12,22.17-18.23,38.22-15,8,1.61,14.66,6.8,17.52,13.51a19.26,19.26,0,0,1,1.19,3.87c.46,2.58-1.59,5,0,7.84l12.8-7.79a19.41,19.41,0,0,1-8.49-7.08,9,9,0,0,1-.07,2.34,11,11,0,0,0,.06-2.31,17.82,17.82,0,0,1,.06-12.3c1.7-1.77,3.15-3.89,5.15-5.25,4.58-3.13,9.58-4.21,14.58-.94,4.35,2.83,4.13,7.06,3.13,11.44,0,.17.33.43.49.62,1.79-.36,2.31-2.18,3.63-3.08C876.85,366.42,876.85,362.66,872.59,356.88Zm-29,128.78c0,.12,0,.23,0,.35,0-.11,0-.23,0-.35Z"/><path class="cls-3" d="M841.88,369.29v0l-1.66-.75v0Z"/><path class="cls-3" d="M843.6,486c0-.11,0-.23,0-.35h0C843.59,485.78,843.6,485.89,843.6,486Z"/><path class="cls-2" d="M766.28,327.5c-3.16.3-.91-3.38-2-4.87.64-1.43-1.06-3.73,1.93-3.82,2.16-.07,2,1.57,1.74,2.7C767.51,323.61,768.75,327.26,766.28,327.5Z"/><path class="cls-2" d="M740.32,343.86c-2.09.16-1.93-1.25-1.93-2.6V321.8c0-1-.71-2.47,1-2.93,1.51-.42,2.48.5,3.37,1.56q6.09,7.23,12.21,14.45c.61.72,1.26,1.39,2.73,3v-16c0-1.31-.72-3.24,1.91-3.06,2.12.15,1.63,1.75,1.64,2.95.07,5.82.14,11.65,0,17.47,0,1.49,1.08,3.59-.93,4.45-2.4,1-3.5-1.2-4.75-2.66-3.92-4.52-7.78-9.1-11.68-13.64-.48-.57-.72-1.49-2.25-1.37v15.21C741.64,342.25,742.25,343.71,740.32,343.86Z"/><path class="cls-2" d="M713.76,318.85c2.84.09,1.63,2.42,1.69,3.79.17,3.66,0,7.33.08,11,.13,5.06,2.28,7.33,6.8,7.16s6.52-2.55,6.43-7c-.08-4,0-8,0-12,0-1.57,0-3,2.25-3s1.51,1.74,1.56,2.86c.1,2.33,0,4.67,0,7.52-.67,3.22,1.11,7.11-2.24,10.76-3.51,3.82-7.27,4.63-11.72,3.48-4.75-1.23-7-4.65-7-9.59,0-3.66-.11-7.34.06-11C711.8,321.35,710.51,318.75,713.76,318.85Z"/><path class="cls-2" d="M716,368.86c-.82-.49-1.87-1.14-1.46-2.32s1.7-.71,2.59-.71c4.27,0,8.41,1.17,12.74,1.1,3-.06,5.79-1.23,8.75-1.13.93,0,2.24-.3,2.44,1a2.52,2.52,0,0,1-1.23,1.93c-5.37,2.69-5.66,7.36-5.59,12.62.21,16.48.08,33,.08,49.46h-.1c0,16.49.12,33-.08,49.46,0,4.81.61,8.85,5.2,11.36.85.47,1.78,1.19,1.48,2.35-.36,1.39-1.72.95-2.51.78-7.2-1.5-14.37-.95-21.55,0-.88.11-2.17.46-2.45-.92a1.88,1.88,0,0,1,.91-1.53c6.55-3.28,5.77-9.16,5.75-15q-.15-48.21.07-96.43C721.11,375.9,720.73,371.63,716,368.86Z"/><path class="cls-2" d="M705.21,286.81c1.73,0,1.73,1,1.71,2.27V299.5h.1v9.91c0,1.12.24,2.34-1.54,2.47-1.94.15-2.12-1-2.12-2.44q.06-10.17.08-20.32C703.42,287.87,703.51,286.83,705.21,286.81Z"/><path class="cls-2" d="M691.59,434.85v0a6.53,6.53,0,0,1-.9,1.69,5.74,5.74,0,0,0-.47.55,4.61,4.61,0,0,1,.47-.58A6.47,6.47,0,0,0,691.59,434.85Z"/><path class="cls-2" d="M676.93,299.11a9.54,9.54,0,0,0,9.35,9.71h.34a9.46,9.46,0,1,0-9.69-9.71Zm9.58,12.78c-7.51,0-13.12-5.26-13.16-12.35,0-7.4,5.58-12.76,13.35-12.72,7.54,0,13.13,5.27,13.26,12.39S694.38,311.89,686.51,311.89Z"/><path class="cls-2" d="M676.71,343.73c-1.62-.5-.25-1.68,0-2.28,2.81-6.87,5.76-13.68,8.64-20.52.45-1.08.75-2.2,2.3-2.11s1.72,1.27,2.18,2.33c3.23,7.39,6.48,14.77,9.79,22.3-3.9,1.44-4.52-1.23-5-3.37-1-4.39-4-4.08-7.44-4.31-3.66-.25-5.54,1.05-6.39,4.42a17.28,17.28,0,0,1-1.08,2.77C679.06,344.44,677.65,344,676.71,343.73Zm7.5-11.08h7.11c-1.22-2.53-2.33-4.83-3.88-8.06Z"/><path class="cls-2" d="M663.7,332.59v-.71C663.69,332.11,663.7,332.35,663.7,332.59Z"/><path class="cls-2" d="M663.63,330.5v1.43A13.6,13.6,0,0,0,663.63,330.5Z"/><path class="cls-2" d="M655.51,320.28c.07-1.84,1.51-1.44,2.57-1.45h15.49c1.07,0,2.5-.41,2.5,1.5s-1.41,1.72-2.46,1.51c-5.78-1.15-6.44,1.91-6,6.62.38,4.29,0,8.65.09,13,0,1.57-.25,2.53-2.14,2.44-1.68-.07-1.81-1-1.8-2.3V330.46a15.35,15.35,0,0,1,.09-2.35c.64-4.57-.37-7.4-5.85-6.25C656.77,322.08,655.39,322.09,655.51,320.28Z"/><path class="cls-2" d="M648.25,311.88c-2.21.15-1.82-1.41-1.83-2.67,0-6.15-.09-12.3,0-18.45,0-1.27-1.1-3.14,1-3.85s3,1.18,4,2.34c4.53,5.24,8.93,10.59,14.3,17V289.86c0-1.42-.44-3.21,2-3,2.12.17,1.57,1.74,1.57,3,0,6.15.09,12.29,0,18.44,0,1.18.75,2.86-1,3.49s-3-.6-4.1-2c-4.48-5.34-9.07-10.58-14.57-17v16.5C649.68,310.39,650.1,311.76,648.25,311.88Z"/><path class="cls-2" d="M637.51,321.78c-1.24.12-3.86,1.41-3.88-1.32,0-3.09,2.71-1.48,4.16-1.56,4-.21,8,0,12-.09,1.89,0,3.64.05,4.1,2.36-.16.2-.24.4-.35.41-7.85,1.15-7.85,1.15-7.84,9.37a74.81,74.81,0,0,1-.1,8.47c-.17,1.55,1.67,4.49-2,4.4-3.16-.09-1.71-2.71-1.78-4.18a120.7,120.7,0,0,1,0-13.45C642.05,322.73,641.05,321.44,637.51,321.78Z"/><path class="cls-2" d="M609.72,321.23c0-1.2,0-2.33,1.7-2.42,1.91-.11,2.14,1,2.12,2.49,0,4.33-.08,8.66.05,13,.14,4.51,2.5,6.72,6.88,6.49,4.09-.21,6.36-2.22,6.27-6.59-.09-4.15.06-8.32.06-12.48,0-1.6,0-3,2.28-2.89s1.48,1.82,1.53,3c.1,2.16,0,4.33,0,6.49v5c-.07,6.93-3.56,10.54-10.21,10.61-7,.07-10.61-3.53-10.69-10.66C609.69,329.22,609.72,325.23,609.72,321.23Z"/><path class="cls-2" d="M691.59,434.85v0a6.53,6.53,0,0,1-.9,1.69,5.74,5.74,0,0,0-.47.55,4.61,4.61,0,0,1,.47-.58,6.47,6.47,0,0,0,.9-1.68,10.09,10.09,0,0,0-.37-1.88c-4.54-11.25-13.55-18.1-23.62-23.89-11-6.29-22.88-10.54-34.16-16.14a25.64,25.64,0,0,1-10.72-9.2,9.8,9.8,0,0,0-.57,1.17,8.85,8.85,0,0,1,.53-1.2c-.9-5.28.6-9.61,5-12.81a3.51,3.51,0,0,0-.22-.48,2.16,2.16,0,0,1,.24.48,42.25,42.25,0,0,1,21.49-4c10,.63,13.37,5.51,9.49,14.15-1,2.15.67,2.5,1.59,2.66,3.16.53,6.17.36,8.67-2.31a8.2,8.2,0,0,0,2.19-8.58c-1.28-4.51-4.74-6.68-8.74-7.83a52.48,52.48,0,0,0-36.69,2.16,3.24,3.24,0,0,0,.78,2,3.2,3.2,0,0,1-.8-2l-3.92,2.22v0c-10.1,6.37-12.12,17.65-4.69,26.89,3,3.79,7.07,6.41,11.37,8.58,13.28,6.69,27,12.39,39.7,20.39,23.81,15,18.45,40.91,5.93,53.22-17.6,17.28-48.68,15.45-65.23,1-8.86-7.79-11.51-20.79-6.4-29.79,8.61-15.22,30.18-19.29,44.32-10,8.2,5.36,8.28,16.23.38,21.15-4.3,2.69-8.75,3-13.3.15-4-2.5-3.71-5.92-2.54-9.59s-1.43-2.76-2.9-2.16c-3.12,1.25-6,2.93-6.73,6.73s.06,7.25,3.19,9.92c5.52,4.75,12.14,5.5,18.94,5,9-.66,17-7.95,18.38-16.11,1.46-8.84-3.45-17.12-12.45-21A44.83,44.83,0,0,0,622,430.8c-13.14,2.79-23.2,12.1-25.77,24.41s3.13,25.85,14.07,33.4c17.77,12.27,45.27,12.48,63.6.48,8.89-5.89,16.28-13.1,18.89-24a7,7,0,0,1-.87-2.23,7.07,7.07,0,0,0,.87,2.2C696.15,454.84,695.26,444.85,691.59,434.85Zm.06,21.95c0-2,.34-4-1.12-5.68a3.08,3.08,0,0,1-.58-1.29h0a3.07,3.07,0,0,0,.57,1.26C692,452.8,691.65,454.83,691.65,456.8Zm-1.54-15.9c.48,1.18,1.22,2.38,1.68,3.57C691.31,443.28,690.57,442.08,690.11,440.9Z"/><path class="cls-3" d="M691.59,434.85v0a6.53,6.53,0,0,1-.9,1.69,5.74,5.74,0,0,0-.47.55,4.61,4.61,0,0,1,.47-.58A6.47,6.47,0,0,0,691.59,434.85Z"/><path class="cls-2" d="M609.51,286.87c1.52-.46,2.43.64,3.31,1.68,4.62,5.45,9.25,10.89,14.9,17.53,0-6.1-.06-10.91,0-15.72,0-1.44-.87-3.71,2-3.5,2.5.17,1.51,2.18,1.54,3.44.1,6,.12,12,0,18,0,1.15.88,2.84-.87,3.48s-3-.52-4.14-1.88c-4.15-5-8.4-9.88-12.6-14.82-.4-.47-.59-1.2-2-.84v15.08c0,1,.57,2.47-1.37,2.59-2.13.13-1.85-1.34-1.86-2.65,0-6.32,0-12.65,0-19C608.45,289.05,607.66,287.44,609.51,286.87Z"/><path class="cls-2" d="M583.42,288.71a14.14,14.14,0,0,1,18.09,3.14c3.33,4.08,3.26,11.13-.18,15.1A7.06,7.06,0,0,1,599.7,308c-.06-1.11.1-2.28-.84-3.16,3.07-9-.93-15.57-9.06-15-6.58.49-9.61,5.71-8.08,13.93l-3.24.12c-.16-.47-.3-.93-.43-1.39s-.22-.9-.3-1.34h0c-.08-.44-.14-.88-.18-1.31h0c0-.42-.06-.85-.06-1.26a11.94,11.94,0,0,1,.25-2.46,10.79,10.79,0,0,1,.34-1.27A11.25,11.25,0,0,1,583.42,288.71Z"/><path class="cls-3" d="M599.73,308c-5.54,5.55-13.66,5.23-18.49.15a13.82,13.82,0,0,1-1.24-1.51,14.89,14.89,0,0,1-1.49-2.71l3.24-.12c5.49,6.58,10.56,6.88,17.14,1C599.83,305.74,599.67,306.91,599.73,308Z"/><path class="cls-2" d="M596.78,343.65c-4.17.15-1.79-3.82-1.95-5.78-.42-5.29-.2-10.63-.23-15.94,1.55-3.18,3.24-3.19,5.07-.23-2.32,5.2-.17,10.71-1.14,16C598.14,339.73,600.66,343.5,596.78,343.65Z"/><path class="cls-3" d="M588.32,318.84h17c.88,0,1.56.23,1.65,1.34.11,1.4-.67,1.7-1.81,1.66l-5.48-.16c-1.83-3-3.52-2.95-5.07.23l-6-.07c-1,0-2,0-2.12-1.41S587.23,318.84,588.32,318.84Z"/><path class="cls-2" d="M573.29,318.81c3.28.06.55,2.74,2.12,3.59-1.55,1.73.63,5.45-2.57,5.12-2.26-.23-1.15-3.61-1.32-5.58C571.41,320.69,570.72,318.75,573.29,318.81Z"/><path class="cls-3" d="M566.19,332.85c-2.8.07-5.61.17-8.41.26v-3.43l8.43.18c.86,0,1.65.17,1.75,1.25C568.07,332.39,567.36,332.82,566.19,332.85Z"/><path class="cls-2" d="M566.23,311.89c-6.64,0-11.59-3.1-13.34-8.13a12.7,12.7,0,0,1,4.34-14.19c5.13-4.05,11.26-3.1,15.68-1.14.91.41,1.83,1,1.34,2.27-.62,1.58-1.69.43-2.44.2-2.87-.87-5.79-1.54-8.71-.79-5.05,1.3-8.2,6.74-6.86,11.45a9.79,9.79,0,0,0,11.8,7.22l.52-.14c.62-.16,1.19-.72,1.8-.74,1.47,0,3.32-2.35,3.93-1,1.07,2.41-1.6,3.15-3.37,3.89S567.64,312.5,566.23,311.89Z"/><path class="cls-2" d="M557.79,340.58c-.87,1.06-1.94,1.09-2-.34a180.42,180.42,0,0,1,.07-18.46c.22-2.74,1.45-1.18,1.91.32v11Q557.79,336.85,557.79,340.58Z"/><path class="cls-3" d="M554.51,328.31c.27-3.06-1.51-7.77.75-8.83,3.27-1.53,7.73-.55,11.68-.6.85,0,1.57.23,1.67,1.33.13,1.45-.77,1.6-1.84,1.63l-8.93.26c-.46-1.5-1.69-3.06-1.91-.32a180.42,180.42,0,0,0-.07,18.46c0,1.43,1.11,1.4,2,.34,3,.08,6,.16,8.93.26,1,0,1.94-.08,2,1.45s-.85,1.56-1.89,1.56h-1c-11.27.58-11.28.58-11.36-10.59A25.58,25.58,0,0,1,554.51,328.31Z"/><path class="cls-3" d="M488.51,385.76c-3.33-.79-4.75-3.34-4.89-6.68-.38-9,11.78-17.43,21.5-14.88,3.46.91,7,1.54,10.37,2.71A16.19,16.19,0,0,0,530,365.13c2.08-1.28,3.79-1.67,5.43.64,1.9,2.69-.62,3.58-2,4.64-15.51,12.38-27.53,27.49-34.31,46.18-5.43,15-6.31,30.5-1.5,46,7.73,24.84,29.94,31.06,51.61,20.19a53.3,53.3,0,0,0,9.7-6.89,12.06,12.06,0,0,0,4.65-10.29c-.26-28.47-.21-57,0-85.42,0-4.68-.68-8.46-5-11-.88-.52-2.35-1.17-1.84-2.58s2.1-.9,3.06-.72a62.53,62.53,0,0,0,23.3-.34c0,1.17.12,1.69,0,1.77-6.66,3.79-6.75,9.89-6.69,16.65.26,30,.1,59.94.12,89.91a46.54,46.54,0,0,0,.4,8c1.36,7.72,4.73,9.43,11.62,6.17a10.1,10.1,0,0,1-9.52,9.77c-8,.6-13.58-5.65-15.59-17.64-3.84,2.19-6.13,5.94-9.63,8.36-27.73,19.25-64.46,9.63-71.11-31.16-.53-3.26-.88-6.56-1.31-9.84q.19-7.69.4-15.41A111.52,111.52,0,0,1,507.42,389c4.64-4.93,9.65-9.51,14.35-14.68-9.26,2.45-17.61-1.18-26.14-3.16-2.42-.56-4.27-.17-5.71,1.63-1,1.31-1.75,3-.51,4.59a3.25,3.25,0,0,0,3.95,1.28c1.06-.41,2.22-1.46,3.07-.17.67,1-.19,2.27-.72,3.27C494.16,384.62,491.87,386.56,488.51,385.76Z"/><path class="cls-4" d="M447.68,403.82c11.89,8.8,24.29,17,34.12,28.27q-.18,7.71-.4,15.41L464,464.72c-2.43,2.41-4.82,4.87-7.23,7.3C453.37,449.34,449.79,426.68,447.68,403.82Z"/><path class="cls-3" d="M423.71,385.83c-.31.5-.75,1.49-.91,1.45-1.8-.5-.74-2.18-1.22-3.26,2.07-2.27,4-4.65,6.24-6.77,2.77-2.65,2.36-4.79-.57-6.89-1.4-1-3.17-1.77-3.37-4.08,3.5-1.19,6.76.12,10.09.49,4.6.52,9.16-.29,13.72-.92.92-.13,2.15-.22,2.48,1a1.83,1.83,0,0,1-.66,1.65c-8.59,3.59-5.36,10.57-4.67,16.65.7,6.24,1.88,12.43,2.85,18.63,2.11,22.86,5.69,45.52,9.08,68.2.53,4.27,1.07,8.54,1.59,12.81.38,3.11,3.24,4,5.15,5.74,1.11,1,3.13,1.76,2.73,3.2-.59,2.11-2.91,1.08-4.32.94a99.13,99.13,0,0,0-10.76-1c-2.52,0-4.86.7-7.28,1-1.07.14-2.61.65-3.25-.49-.8-1.43.47-2.42,1.5-3.29,3.25-2.76,5.73-5.7,2.41-10,.13-9.87-1.8-19.53-3-29.26-2.57-20.88-5.34-41.74-8-62.61a4.31,4.31,0,0,0-.62-1.32h0c-.33-1.67.35-3.51-.93-5.31L428.1,386Z"/><path class="cls-4" d="M432.51,492c-1.67,1.28-2.4-.66-3.16-2-4.52-8-9.24-16-13.64-24.07-1.66-3.07-4.84-4.94-6-8.3a4,4,0,0,1,0-.85c4.1-4.92,5.18-10.69,4.74-16.89a21,21,0,0,0-2.85-11c-2.07-5-4.54-9.64-8.77-13.16a1.85,1.85,0,0,0-.14-.77l24.5-27.06c2.16.3,3.22,2.43,5.38,3.19.11-1.14.2-2.21.3-3.3a4.31,4.31,0,0,1,.62,1.32c2.71,20.87,5.48,41.73,8,62.61,1.2,9.73,3.13,19.39,3,29.26C442.39,486.61,436.83,488.65,432.51,492Z"/><path class="cls-2" d="M408.67,455.13c2.3-4.95.06-11.64,5.77-15.28.44,6.2-.64,12-4.74,16.89C409.33,456.19,408.51,455.44,408.67,455.13Z"/><path class="cls-3" d="M405.69,262.23q1.21,1.89,2.42,3.78h0Q406.91,264.12,405.69,262.23Z"/><path class="cls-2" d="M402.82,415.67c4.23,3.52,6.7,8.21,8.77,13.16-3.28-.36-5.44-1.7-5-5.5.09-.75.17-1.6-1-1.84C402.16,420.79,402.85,418,402.82,415.67Z"/><path class="cls-2" d="M399.77,422.72c-.11-.74.31-1.26,1.14-1.08A1.23,1.23,0,0,1,402,423h0c-.09,2.71-.89,5.08-3.17,6.76a7.12,7.12,0,0,1-3-3C397.51,425.8,400.23,425.84,399.77,422.72Z"/><path class="cls-4" d="M390.61,428.7c1.27-1.92,2.42-4.16,5.21-1.91a7.12,7.12,0,0,0,3,3c4.25,5.35,7.66,10.94,5.3,18.21-4.11-5.24-8.88-10.07-10.6-16.8C393.13,429.6,391.33,429.82,390.61,428.7Z"/><path class="cls-3" d="M395.65,247.42q5.18,7.29,10,14.81Q400.82,254.72,395.65,247.42Z"/><path class="cls-2" d="M401.6,410.14c-3,1.64-5.21.29-7.6-.25-3.88-.88-.73-2-.26-3.08,2.33,2.33,4.86,2.68,7.13.14,6.86-7.62,13.6-15.35,20.38-23.05h0l.32.12c.48,1.08-.58,2.76,1.22,3.26.16,0,.6-.95.91-1.45L428,386l-.86,1.83-24.5,27.06C400.94,413.9,398.81,413,401.6,410.14Z"/><path class="cls-5" d="M386.32,420.5h0l.59-.64.4-.44c0,.42.26,1,.07,1.24A.61.61,0,0,1,386.32,420.5Z"/><path class="cls-5" d="M386.9,419.83l-.59.64Z"/><path class="cls-5" d="M353.51,366h15A28.49,28.49,0,0,1,353.51,366Z"/><path class="cls-3" d="M395.82,426.79c-2.79-2.25-3.94,0-5.21,1.91-5.3,5.91-6.4,12.71-4.1,20.16,1.41,4.55,4,8.09,9.26,7.87s7.49-4,8.37-8.76c2.36-7.27-1.05-12.86-5.3-18.21,2.28-1.68,3.08-4.05,3.17-6.76a1.23,1.23,0,0,0-1.08-1.36h0c-.83-.18-1.25.34-1.14,1.08C400.23,425.84,397.51,425.8,395.82,426.79Zm-61.73,68a2.69,2.69,0,0,1-2.2-.55,1.5,1.5,0,0,1,.27-2.1l.14-.1c8.78-4.64,7.07-13.56,8.23-21,3.47-22.45,6.4-45,9.54-67.49q1.62-11.58,3.27-23.16c.7-5.87.7-5.87-6.5-13.76,2.19-1.4,4.49-.45,6.62-.63h0a28.49,28.49,0,0,0,15,0h4.91c.55,2.46-1.42,3.21-2.56,4-4.22,2.91-3.85,6-1.13,9.69,6.34,8.56,13.67,16.25,21,23.9,1,1.06,2,2.2,3,3.3-.47,1.06-3.62,2.2.26,3.08,2.39.54,4.62,1.89,7.6.25-2.79,2.89-.66,3.76,1.08,4.76a1.85,1.85,0,0,1,.14.77c0,2.37-.66,5.12,2.78,5.82,1.2.24,1.12,1.09,1,1.84-.48,3.8,1.68,5.14,5,5.5a21,21,0,0,1,2.85,11c-5.71,3.64-3.47,10.33-5.77,15.28-.15.31.66,1.06,1,1.61a4,4,0,0,0,0,.85c-5.6,5.76-12.11,8.26-19.8,4.78-6.72-3-11.84-13.56-10.9-21.85a33.25,33.25,0,0,1,5.39-15.28c.9-1.31,2.6-2.49,2-4.48l-.09-.28c.27.64.8.54,1,.15s0-.82-.07-1.24c-7.77-10.07-16.14-19.7-22.61-31.85-1.36,9-2.69,17.25-3.85,25.53-3.15,22.5-5.94,45.05-9.55,67.48-.85,5.31.76,8.13,4.58,10.73.94.65,2.23,1.17,1.72,2.62s-2.07,1-3,.84a55.09,55.09,0,0,0-20.4,0Z"/><path class="cls-3" d="M270.16,93.43c9-5.08,5.9-5.31,11.56,2.87,12.7,18.38,26.9,35.45,43.65,50.31a52.2,52.2,0,0,1,5.24,4.61c5.57,6.48,17.5,4.92,22.16-2.18,11.2-17.1,17.11-35.95,21-55.74,3.32-17,3.33-33.87,1.28-51-1-8.25-3-16.24-4.38-24.37A8.42,8.42,0,0,1,372.93,10c2.4-2.41,5.1-1.48,7.82-.39,9.24,3.72,18.72,6.79,27.84,10.88,8.15,3.66,14.45,10.69,10.58,21.12-2.76,7.43-5.32,14.9-8.42,22.24-8.7,20.63-15.81,41.63-15,64.63.63,17.31,11.6,30.44,28.83,33.51,11.45,2,22.18-1.19,32.67-4.27a158.31,158.31,0,0,0,58-31.28c5.47-4.62,9.79-3.49,12.58,3.08,4.14,9.74,2.07,18.86-3,27.5-3.92,6.64-6.08,13.4-4.18,21.2,1.64,6.72-2,10.67-8.93,9.56-24.19-3.88-48.52-5.21-73-5.82-12.07-.29-21,2.69-26.75,13.18-3.39,6.16-3.21,12.56-.61,19.27,3.53,9.13,11.51,13.29,18.66,18.61,9.72,7.23,20.68,12.08,32.33,17.07-9.1,6.28-17.42,12.29-24.46,19.84-10-.9-20.06-.89-29.76-3.91-.8-1.26-1.6-2.52-2.42-3.78q-4.86-7.51-10-14.81a363.62,363.62,0,0,0-31.05-38.11q-7.14-7.65-14.41-15.2c-.85-.88-1.42-2.33-3.47-2a45.57,45.57,0,0,1,2.7,5.64c2.86,8.65-3.72,20-13,22a18.56,18.56,0,0,1-22.06-13.46c-2.4-10.23,7.6-23.72,19.44-21.7,1.47.26,3.79,1.41,4.53-.32.84-2-1.72-2.88-3-4-26.49-22.58-54.52-42.85-86.42-57.23-4.11-1.85-4.12-2.72-1.61-6.75C253.27,106.87,260.51,98.88,270.16,93.43Z"/><path class="cls-6" d="M266.59,335.06h0q-5.49-2.9-10.71-6.15Q261.1,332.17,266.59,335.06Z"/><path class="cls-6" d="M214.28,292.74c12-1.55,23.66,1.08,35.36,3.12.88,1.44,3.17,1.25,3.69,3.06.9,3.17,1.3,3.57,3.93,2a8.38,8.38,0,0,1,8.09-.33c-.33,1.93-2.79.69-2.85,3,3.18.7,7-2.76,9.7,1,.93.23,2.15.16,2.75.73,4.72,4.51,4.61,17.71-.16,22.31-2.65,2.56-5.46,5-8.2,7.43h0q-5.49-2.9-10.72-6.14c-3.48-2.17-6.86-4.45-10.17-6.84q-6.6-4.79-12.77-10.13a219.25,219.25,0,0,1-17.61-17.15c-.49-.54-1.23-1-1.09-1.84A1.42,1.42,0,0,1,214.28,292.74Z"/><path class="cls-7" d="M269,299.77a4.24,4.24,0,0,1,3.2,4.83c-2.73-3.76-6.52-.3-9.7-1,.06-2.28,2.52-1,2.85-3a8.38,8.38,0,0,0-8.09.33c-2.63,1.53-3,1.13-3.93-2-.52-1.81-2.81-1.62-3.69-3.06C256.36,295.8,262.7,297.68,269,299.77Z"/><path class="cls-6" d="M245.7,322.08c3.31,2.39,6.69,4.67,10.17,6.84C252.39,326.76,249,324.5,245.7,322.08Z"/><path class="cls-6" d="M232.93,312q6.18,5.34,12.77,10.13Q239.1,317.29,232.93,312Z"/><path class="cls-6" d="M149.3,130.56c8.83-4.48,17.73-7.27,23-7.24L166.84,25c-.09-1.75-.11-3.72,1.13-5,1.09-1.09,2.8-1.22,4.35-1.21a47.92,47.92,0,0,1,40.24,23.58,47.9,47.9,0,0,1,0,46.64c1.73-11.64.93-24-4.43-34.46s-15.8-18.76-27.55-19.49c.4,34.14,18,84.34.9,116.13-6.35,11.83-40.85,30.53-53.47,19C112.93,156.47,131,139.87,149.3,130.56Z"/><path class="cls-7" d="M211.62,86.74c.25,1.09-.14,2.4,1.06,3.18-1.24,2.64-2.53,5.22-6.47,7.21C208.37,93,210,89.86,211.62,86.74Z"/><path class="cls-4" d="M353.34,380.35c-2-5.64-6.95-9.12-10.43-13.61-5.13-6.62-9.65-14.13-18.51-17.36a28.51,28.51,0,0,0-33.63,10.85Q272,388.54,255,417.88c-9.46,16.29-17.7,33.19-26.06,50.05-7.29,14.7-13.75,29.75-20.61,44.63-3.36,7.29-5.79,15-8.36,22.63-.88,2.63-2.06,3.45-4.7,2.85-13.52-3.08-26.73-7-39.29-13-8.16-3.9-16.4-7.64-24.66-11.35-2.86-1.29-5.11-3.5-8.27-4.46-2.37-.73-1.55-3.26-.41-5.07,5.5-8.77,11.12-17.47,16.52-26.3,6.28-10.29,13.83-19.68,20.74-29.52,11.76-16.78,25.4-32,38.55-47.66,9.13-10.84,19.62-20.55,29.64-30.63,6.12-6.16,12.45-12.08,18.91-17.88q7.26-6.51,14.68-12.86l4.93-4.23h0c2.74-2.47,5.55-4.87,8.2-7.43,4.77-4.6,4.88-17.8.16-22.31-.6-.57-1.82-.5-2.75-.73a4.24,4.24,0,0,0-3.2-4.83c-6.3-2.09-12.64-4-19.36-3.91-11.7-2-23.35-4.67-35.36-3.12h0a132.2,132.2,0,0,0-35.86,6.31c-3.1,1-3.84-.66-3.47-2.87a68.79,68.79,0,0,0,0-20.26c-.4-3.12,1.46-3.76,4.22-4.05,5.6-.57,11.16-1.59,16.73-2.43,4.09-.37,8.17-.72,12.26-1.1,14.82-1.39,29.65-2.75,44.47-4.21,3.21-.32,6.63,1.07,9.62-1.15,7.36,2,14.92,1.19,22.28.66,10.31-.76,20.59-.47,30.88-.71,1.4,0,3.43.73,4-1,.8-2.4-1.72-1.76-2.84-2.36A18.06,18.06,0,0,1,308,238.8c1.49-5.33,10.13-13.92,17.63-13,6.76.83,14.1,5.81,16.5,12.42,2.57,7.09.34,12.75-4.88,17.88-2.07,2-3.86,4.09-7.4,4.5,1.57,2.33,3.46,2.32,5.37,2.39,16.91.64,33.85,1,50.73,2.09,7.39.47,14.76,1,22.15.94h0c9.7,3,19.78,3,29.76,3.91,8.3,2.63,17.06,2.09,25.52,3.76,11.48,2.27,23.11,3.79,34.66,5.72,8.64,1.45,17.29,2.93,25.89,4.58,6.6,1.26,13,3.5,19.74,4,2.46.19,1.93,2.27,2,3.85.62,8.06-1.32,15.89-2.62,23.71-1.41,8.43-3.77,16.7-5.75,25-.82,3.42-3.15,4.5-5.28,2.38-8.05-8-17.89-13.44-27.65-18.85-19.29-10.7-38.67-21.18-60-27.59-11.8-3.53-23.63-6.56-35.69-9.07-6.2-1.29-12.42-1.68-18.58-2.3-18.35-1.85-36.58,9-42.55,27.4-.25.78-.56,1.55-.85,2.33-2.86,7.62-1.57,10.45,5.13,15.19,10,7,19.55,14.63,29.36,21.9,7.91,5.86,16.07,11.4,23.81,17.47,5,3.9,10.25,7.52,14.47,12.3.6.68,1.18,1.39,1.74,2.12-6.78,7.7-13.52,15.43-20.38,23.05-2.27,2.54-4.8,2.19-7.13-.14-1-1.1-1.94-2.24-3-3.3-7.38-7.65-14.71-15.34-21-23.9-2.72-3.66-3.09-6.78,1.13-9.69,1.14-.79,3.11-1.54,2.56-4h-20c-2.13.18-4.43-.77-6.62.63C354,374.5,354,374.5,353.34,380.35Z"/><path class="cls-7" d="M147.77,175.72c.32-.52.81-1.52,1-1.47,3.59,1.21,6.62-1.59,10-1.34C155.9,177.09,151,176.49,147,178,147.36,177.28,148.14,176.71,147.77,175.72Z"/><path class="cls-6" d="M15.92,273.07c-2.24,1.95-3.21,1.26-4.53-.93-4.71-7.8-3.66-14.44,3.24-20,9.78-8,19.66-15.78,30.13-22.78,31.65-21.17,64.8-39.42,101.2-51.22a4.85,4.85,0,0,1,1-.1c4-1.5,8.94-.9,11.81-5.08h0c1.3.84,2.62,1.35,4.17.52,10.81-5.75,22.89-6.82,34.57-9.42a385.58,385.58,0,0,1,86.13-9.12c3.12,0,7.08-1.15,7.21,4.27s-3,9.71-7.69,9.72c-8.67,0-17.25.81-25.87,1.63-11.37,1.08-21.44,5.7-31.36,10.62-4.63,2.29-9.74,4-13.25,8.49-10.39,13.38-5.66,35,5.57,43.39,14.21,10.63,28.5,21.12,43.91,30-3,2.22-6.41.83-9.62,1.15-14.82,1.46-29.65,2.82-44.47,4.21-4.09.38-8.17.73-12.26,1.1-3.66-8.34-9.49-15.54-12.74-24.09-2.53-6.64-4.92-13.34-7.81-21.21-3.39,7-6.54,12.87-9.13,19a384,384,0,0,0-21.94,71.15c-6.64,31.73-8.28,64-6.74,96.32.35,7.32.66,14.64,1.27,21.94.29,3.51-1.18,4.9-4.41,5.06-11.86.58-23.19,4.14-34.72,6.5-5,1-9.52,3.88-14.4,5.48-5.5,1.8-5.78,1.56-5.22-4.05,1.53-15,3-30.09,5.16-45.07C88.08,379.82,92.6,359.42,97,339a600.86,600.86,0,0,1,23.64-80.05c2.91-7.94,5.76-15.89,8.75-23.8,1.77-4.69,2.06-9.4-1.56-13.07-3.43-3.46-8.16-3.59-12.61-2-9.06,3.22-18,6.67-26.9,10.44C66,240,45.63,252.8,25.46,266A88.5,88.5,0,0,0,15.92,273.07Z"/></g></g></svg>