<svg xmlns="http://www.w3.org/2000/svg" viewBox="0 0 56.58 63.84"><defs><style>.cls-1{fill:#009fe3;}</style></defs><g id="Livello_2" data-name="Livello 2"><g id="Livello_1-2" data-name="Livello 1"><path class="cls-1" d="M56.48,25.16c0,7.57-.29,15.14.09,22.69.36,7.31-8.9,11.81-15,9.61-4-1.45-5.69-5.18-3.82-8.82,2.24-4.37,8.38-7,13.42-5.6,1.62.46,1.72,0,1.71-1.29q-.14-14.4-.11-28.79c0-1.21-.32-1.45-1.55-1.21q-15.21,3-30.44,6c-1.19.23-1.43.7-1.42,1.74.1,11.42,0,22.85.3,34.27.21,7.37-9.06,11.75-15.11,9.5C.5,61.75-1.11,58,.8,54.4c2.29-4.37,8.45-7,13.46-5.52,1.44.41,1.7.19,1.69-1.17-.13-11.83-.19-23.66-.26-35.49,0-4.26,0-4.26,4.41-5.15L54.35.2c1.93-.38,1.94-.38,1.94,1.51V25.16Z"/></g></g></svg>