<svg xmlns="http://www.w3.org/2000/svg" viewBox="0 0 33.39 56.69"><defs><style>.cls-1{fill:#82368c;}</style></defs><g id="Livello_2" data-name="Livello 2"><g id="Livello_1-2" data-name="Livello 1"><path class="cls-1" d="M16.57,42.47c0-5.17-.06-10.24-.05-15.31q0-12.09.1-24.17c0-.34,0-.67,0-1,.05-.87.06-1.81,1.26-2s1.45.82,1.71,1.62A32.67,32.67,0,0,0,26.17,13c6.62,7.66,8.54,16.43,6.36,26a13.77,13.77,0,0,1-.77,2.15c-.24.56-.45,1.31-1.33,1s-.49-.92-.37-1.47a31.35,31.35,0,0,0-.6-15.48,16.92,16.92,0,0,0-3-6A5.49,5.49,0,0,0,21.83,17c-1.81.07-2.31.53-2.31,2.26q0,13.23,0,26.45c0,6.82-5.08,11.35-12.32,10.91C4.3,56.49,1.86,55.43.61,52.82S.17,47.8,2,45.67a12.34,12.34,0,0,1,13.73-3.42C15.91,42.33,16.15,42.37,16.57,42.47Z"/></g></g></svg>