<svg xmlns="http://www.w3.org/2000/svg" viewBox="0 0 936.26 177.86"><defs><style>.cls-1,.cls-2,.cls-3{fill:none;stroke:#1d1d1b;}.cls-1{stroke-miterlimit:10;}.cls-1,.cls-2{stroke-width:5.67px;}.cls-2,.cls-3{stroke-linecap:round;stroke-linejoin:round;}.cls-3{stroke-width:5.54px;}.cls-4{fill:#e30613;}.cls-5{fill:#00aa8b;}</style></defs><g id="Livello_2" data-name="Livello 2"><g id="Livello_1-2" data-name="Livello 1"><line class="cls-1" x1="152.18" y1="88.21" x2="152.18" y2="164.09"/><path class="cls-2" d="M15.53,2.83l60.39,1a7.86,7.86,0,0,1,3.9,14.61L16.67,56.15C9.47,60.45,1.21,67.07,3.11,75.23c2,8.49,13,10.5,21.69,10.74,304.3,8.63,540.6,8,844.52-9.45"/><path class="cls-2" d="M15.53,21.8l60.39,1a7.86,7.86,0,0,1,3.9,14.6L16.67,75.12C9.47,79.42,1.21,86,3.11,94.2c2,8.49,13,10.5,21.69,10.74,304.3,8.63,558.6,7,862.51-10.49"/><path class="cls-2" d="M15.53,40.77l60.39,1a7.86,7.86,0,0,1,3.9,14.6L16.67,94.09C9.47,98.39,1.21,105,3.11,113.17c2,8.49,13,10.49,21.69,10.74,304.3,8.63,575.08,6.1,879-11.38"/><path class="cls-2" d="M15.53,59.74l60.39,1a7.86,7.86,0,0,1,3.9,14.6L16.67,113.06C9.47,117.35,1.21,124,3.11,132.13c2,8.5,13,10.5,21.69,10.75,304.3,8.63,587.58,5.41,891.49-12.06"/><path class="cls-2" d="M15.53,78.71l60.39,1a7.86,7.86,0,0,1,3.9,14.6L16.67,132c-7.2,4.29-15.46,10.91-13.56,19.07,2,8.49,13,10.5,21.69,10.75,304.3,8.63,604.7,4.44,908.62-13"/><line class="cls-3" x1="727.66" y1="84.74" x2="727.66" y2="157.31"/><path class="cls-4" d="M100.51,174.9c5.33,3.19,11.7,0,12.66-6.18.75-4.8-.18-9.5-.87-14.21-.13-.89-.68-.87-1.38-.75a21.47,21.47,0,0,1-17.65-4.87A25.45,25.45,0,0,1,87,117.66a42,42,0,0,1,10.85-13.32c2.19-1.79,3-3.47,2.31-6.56a52.81,52.81,0,0,1-.68-21.18,26,26,0,0,1,4-9.51,9.64,9.64,0,0,1,1.6-1.83,3.27,3.27,0,0,1,4.94.11c3.12,3.1,4.33,7.14,5.14,11.38,1.22,6.34-.24,12.31-2.31,18.18a45,45,0,0,1-7,13,1.87,1.87,0,0,0-.44,1.75c.54,2.36,1,4.75,1.49,7.13.14.71.35,1.07,1.21,1,7-.81,12.73,1.7,16.26,8.18s2.93,13-.78,19.33a17.18,17.18,0,0,1-8.52,7.26c-.83.35-1.16.73-1,1.73a70.7,70.7,0,0,1,1.2,8.71,22.29,22.29,0,0,1-.61,7.51c-1.08,4.12-3.63,6.68-7.73,7.23-5.23.69-10.42-1.26-12.49-6.43a6.46,6.46,0,0,1,1.44-7.1,5.87,5.87,0,0,1,6.69-1.39,6.32,6.32,0,0,1-.67,11.7C101.49,174.65,101,174.75,100.51,174.9Zm3-64.11c-4.14,3.15-10.26,10.44-12.42,14.74a19.34,19.34,0,0,0-2.15,9.26c.38,13.35,12.16,19.17,21.27,16.73,1.13-.31,1.44-.78,1.2-2-1.32-6.69-2.53-13.4-3.8-20.11-.66-3.47-1-3.59-3.56-1.23-4.16,3.81-3.83,11.41,2.16,13.09.42.12,1.13.13.94.85-.14.56-.73.33-1.15.29-5.66-.54-9.72-6.14-9-12.39.61-5,2.94-8.77,7.31-11a1.16,1.16,0,0,0,.76-1.49C104.54,115.31,104,113.13,103.48,110.79Zm17.1,26.85c0-.36,0-.73,0-1.1-.24-6-4.64-10.7-10.07-10.76-1.86,0-1.89,0-1.53,1.9,1.38,7.09,2.77,14.18,4.12,21.28.22,1.14.61,1.08,1.38.52A14.28,14.28,0,0,0,120.58,137.64Zm-17.7-39.08c.45.06.59-.21.75-.4a40,40,0,0,0,7.61-13.23,14.45,14.45,0,0,0,.65-7.17A3,3,0,0,0,108.66,75c-2.72.11-4,2.13-4.88,4.39C101.36,85.68,101.77,92.12,102.88,98.56Z"/><path class="cls-5" d="M605,150.8c-5.92-4.74-6-9.75-4.83-14.4,1.13-4.45,5.44-1,8.39-1.32-2.38-5.08-5-9.35-6.34-14-.91-3.15-2.48-8,1.82-9.72,7.59-3,10.51-7.21,2.82-17.27,13.6,9.33,14.12,17.65,4.27,23.15-5.16,2.88-4.12,6.3-2.15,9.77,2.72,4.79,6.15,9.18,10,14.87C610.88,139.57,602.63,136.51,605,150.8Z"/></g></g></svg>